<svg width="92" height="120" viewBox="0 0 92 120" fill="none" xmlns="http://www.w3.org/2000/svg">
<path d="M95.6889 1.38686L15.3574 24.0775C10.0312 25.5819 5.5216 29.1374 2.82085 33.9615C0.120103 38.7857 -0.550621 44.4835 0.956229 49.8014L35.0457 170.109C36.5525 175.426 40.1135 179.929 44.9453 182.625C49.777 185.322 55.4837 185.991 60.81 184.487L141.141 161.797C146.468 160.293 150.977 156.737 153.677 151.912C156.378 147.088 157.049 141.391 155.542 136.073L121.453 15.7654C119.946 10.4475 116.384 5.94506 111.553 3.24856C106.721 0.552051 101.015 -0.117625 95.6889 1.38686ZM73.3272 56.4292L75.1282 62.7855L79.7404 58.0503C80.2169 57.5546 80.7868 57.1579 81.4175 56.883C82.0481 56.6081 82.727 56.4605 83.415 56.4487C84.103 56.4369 84.7866 56.5611 85.4265 56.814C86.066 57.067 86.6498 57.4438 87.1426 57.9229C87.6362 58.4019 88.0294 58.9736 88.3007 59.605C88.572 60.2365 88.7153 60.9153 88.7222 61.6023C88.7299 62.2893 88.6012 62.9709 88.3428 63.608C88.0852 64.245 87.704 64.8249 87.2216 65.3143L82.609 70.0496L89.0227 71.6705C89.6906 71.8347 90.3199 72.1292 90.8736 72.5371C91.4273 72.9449 91.8943 73.4582 92.2489 74.0471C92.6026 74.6361 92.837 75.2893 92.9374 75.9689C93.0378 76.6486 93.0026 77.3415 92.8335 78.0075C92.6653 78.6735 92.3656 79.2996 91.9536 79.8497C91.5415 80.3998 91.0247 80.8632 90.4323 81.213C89.84 81.5627 89.1841 81.7921 88.5024 81.8878C87.8217 81.9837 87.128 81.9439 86.4618 81.7708L80.0485 80.1499L81.8495 86.5063C82.2262 87.8357 82.0585 89.2603 81.3834 90.4663C80.7082 91.6723 79.5807 92.5611 78.2492 92.9374C76.9176 93.3129 75.491 93.1457 74.283 92.472C73.0751 91.7974 72.1849 90.672 71.8082 89.3426L70.0071 82.9862L65.3949 87.7217C64.9184 88.2171 64.3485 88.614 63.7178 88.8883C63.0872 89.1634 62.4083 89.3109 61.7203 89.3229C61.0323 89.3349 60.3487 89.2106 59.7089 88.9577C59.0692 88.7048 58.4858 88.3277 57.9925 87.8486C57.4993 87.3694 57.1057 86.7986 56.8346 86.1669C56.5635 85.5352 56.4202 84.8565 56.4129 84.1695C56.4056 83.4825 56.5345 82.8008 56.7921 82.1637C57.0497 81.5266 57.4311 80.9468 57.9141 80.4574L62.5262 75.7221L56.113 74.1012C54.7796 73.7548 53.6375 72.8959 52.936 71.7118C52.2345 70.5279 52.0306 69.1149 52.3687 67.7812C52.7067 66.4476 53.5594 65.3016 54.7406 64.5934C55.9219 63.8852 57.3356 63.6722 58.6736 64.0009L65.0869 65.6218L63.2857 59.2656C62.909 57.9361 63.0768 56.5117 63.7519 55.3056C64.4271 54.0996 65.5545 53.2107 66.8861 52.8346C68.2177 52.4585 69.6443 52.6259 70.8523 53.3001C72.0602 53.9742 72.9504 55.0998 73.3272 56.4292ZM55.9866 110.054L106.193 95.8723C107.525 95.496 108.952 95.6631 110.16 96.3377C111.367 97.0114 112.258 98.1369 112.635 99.4663C113.011 100.796 112.843 102.22 112.168 103.426C111.493 104.632 110.366 105.521 109.034 105.897L58.8273 120.079C57.4958 120.455 56.0691 120.288 54.8612 119.613C53.6532 118.94 52.763 117.814 52.3863 116.485C52.0095 115.155 52.1772 113.731 52.8524 112.525C53.5276 111.319 54.655 110.43 55.9866 110.054ZM61.6682 130.105L111.875 115.923C113.206 115.547 114.633 115.714 115.841 116.389C117.049 117.063 117.939 118.188 118.316 119.517C118.693 120.847 118.526 122.271 117.85 123.477C117.175 124.683 116.047 125.572 114.716 125.949L64.5089 140.13C63.1774 140.506 61.7507 140.339 60.5428 139.665C59.3348 138.991 58.4445 137.865 58.0678 136.536C57.6911 135.207 57.8588 133.782 58.534 132.576C59.2092 131.37 60.3366 130.481 61.6682 130.105Z" fill="url(#paint0_linear_133_29152)"/>
<defs>
<linearGradient id="paint0_linear_133_29152" x1="3.31923" y1="28.8663" x2="158.746" y2="31.3041" gradientUnits="userSpaceOnUse">
<stop stop-color="#FF1CF7"/>
<stop offset="1" stop-color="#00F0FF"/>
</linearGradient>
</defs>
</svg>
