<svg width="92" height="120" viewBox="0 0 92 120" fill="none" xmlns="http://www.w3.org/2000/svg">
<path fill-rule="evenodd" clip-rule="evenodd" d="M32.2719 151.929L0.81468 40.9426C-0.421316 36.5818 0.128458 31.9094 2.34306 27.9532C4.55766 23.9972 8.25568 21.0814 12.6236 19.8474L78.5005 1.2365C82.8685 0.0025264 87.5485 0.551406 91.5107 2.7624C95.4736 4.97339 98.3946 8.66538 99.6298 13.0262L131.087 124.012C131.29 124.726 131.303 125.48 131.126 126.201C130.948 126.921 130.585 127.582 130.074 128.121C129.562 128.658 128.919 129.054 128.207 129.269C127.496 129.483 126.741 129.508 126.016 129.343L89.6886 132.405L39.3885 153.817C38.8583 154.336 38.2018 154.709 37.4833 154.899C36.7649 155.088 36.0095 155.087 35.2913 154.897C34.5732 154.707 33.9171 154.333 33.3877 153.812C32.8582 153.292 32.4737 152.643 32.2719 151.929ZM82.7044 52.0294C83.2588 51.0392 83.3964 49.8696 83.087 48.778C82.7777 47.6864 82.0466 46.7623 81.0547 46.2088C80.0628 45.6554 78.8913 45.518 77.798 45.8269C76.7046 46.1358 75.7789 46.8657 75.2246 47.8559L59.6037 75.773L47.4941 69.0093C47.003 68.7352 46.4626 68.5604 45.9038 68.4949C45.3451 68.4293 44.7788 68.4744 44.2374 68.6273C43.6961 68.7803 43.1902 69.0382 42.7486 69.3863C42.307 69.7345 41.9386 70.166 41.664 70.6563C41.3895 71.1467 41.2145 71.6861 41.1488 72.244C41.0832 72.802 41.1283 73.3673 41.2815 73.9077C41.4347 74.4483 41.693 74.9534 42.0417 75.3942C42.3904 75.835 42.8226 76.2029 43.3138 76.4769L59.161 85.3192C59.6519 85.594 60.1924 85.7693 60.7513 85.8352C61.3103 85.9011 61.8767 85.8563 62.4183 85.7033C62.9598 85.5504 63.4659 85.2921 63.9074 84.9436C64.3489 84.5951 64.7171 84.163 64.991 83.6721L82.7044 52.0294Z" fill="url(#paint0_linear_133_29589)"/>
<defs>
<linearGradient id="paint0_linear_133_29589" x1="20.8911" y1="5.08629" x2="141.49" y2="51.6547" gradientUnits="userSpaceOnUse">
<stop stop-color="#FF1CF7"/>
<stop offset="1" stop-color="#00F0FF"/>
</linearGradient>
</defs>
</svg>
