<svg width="92" height="120" viewBox="0 0 92 120" fill="none" xmlns="http://www.w3.org/2000/svg">
<path fill-rule="evenodd" clip-rule="evenodd" d="M0.702393 40.4538C-0.319 36.8383 0.135319 32.9645 1.9654 29.6845C3.79548 26.4046 6.85141 23.9872 10.4609 22.9641L113.461 -6.68187L123.256 23.317L149.462 116.08C150.484 119.695 150.03 123.569 148.2 126.849C146.369 130.129 143.313 132.546 139.704 133.569L48.9725 159.286C45.3629 160.309 41.4955 159.854 38.2211 158.021C34.9465 156.188 32.533 153.127 31.5116 149.511L0.702393 40.4538ZM61.5598 47.744L34.3404 55.4591L36.9079 64.5471L64.1272 56.8321L61.5598 47.744ZM105.555 64.7216L42.0427 82.7234L44.6102 91.8113L108.122 73.8098L105.555 64.7216ZM72.9898 112.312C69.6015 114.333 67.5278 117.954 67.3847 121.263L57.9539 120.834C58.2648 114.198 62.1745 107.781 68.1506 104.201C74.0776 100.657 81.8103 100.036 89.7891 104.066C91.4743 103.005 93.2757 102.142 95.1582 101.494C99.9829 99.8414 104.715 99.8357 108.924 100.341C112.018 100.71 115.105 101.406 117.719 101.99C118.54 102.189 119.323 102.36 120.042 102.509C123.409 103.224 125.174 103.332 126.182 103.046L128.749 112.135C125.21 113.137 121.243 112.416 118.097 111.758C117.149 111.555 116.201 111.346 115.255 111.13C112.796 110.53 110.309 110.059 107.8 109.719C104.41 109.306 101.215 109.406 98.2123 110.434C97.764 110.585 97.3213 110.756 96.8881 110.947L96.9326 111.072C98.0099 113.947 97.4793 116.718 96.4029 118.908C94.4261 122.943 90.1948 125.968 86.8359 127.607C85.1065 128.495 83.2481 129.104 81.3292 129.413C80.2376 129.576 79.1246 129.525 78.0526 129.262C77.2176 129.051 76.4388 128.66 75.7716 128.114C75.1044 127.569 74.5651 126.884 74.1918 126.106C73.5367 124.64 73.4563 122.981 73.9665 121.458C74.3516 120.302 74.909 119.211 75.6197 118.222C76.9405 116.306 78.9991 114.054 81.8696 111.415L82.0632 111.164C80.5506 110.728 78.9653 110.606 77.4038 110.804C75.8423 111.002 74.3375 111.515 72.9807 112.315L72.9898 112.312Z" fill="url(#paint0_linear_133_29591)"/>
<defs>
<linearGradient id="paint0_linear_133_29591" x1="23.8548" y1="-1.83561" x2="159.516" y2="53.7062" gradientUnits="userSpaceOnUse">
<stop stop-color="#FF1CF7"/>
<stop offset="1" stop-color="#00F0FF"/>
</linearGradient>
</defs>
</svg>
