<svg width="92" height="120" viewBox="0 0 92 120" fill="none" xmlns="http://www.w3.org/2000/svg">
<path fill-rule="evenodd" clip-rule="evenodd" d="M39.8666 185.323L1.64515 49.9789C0.143376 44.6611 0.81137 38.9633 3.50218 34.139C6.19299 29.3146 10.6862 25.7589 15.9933 24.2541L96.0362 1.55884C101.343 0.0540434 107.029 0.723383 111.844 3.4196C116.659 6.11583 120.207 10.6181 121.709 15.9359L159.93 151.28C160.177 152.15 160.193 153.069 159.977 153.948C159.761 154.827 159.32 155.633 158.698 156.289C158.077 156.945 157.296 157.427 156.432 157.689C155.567 157.95 154.65 157.982 153.77 157.78L93.0158 143.929L48.5135 187.624C47.8693 188.259 47.0716 188.713 46.1987 188.944C45.3258 189.176 44.408 189.175 43.5353 188.943C42.6628 188.71 41.8656 188.254 41.2224 187.62C40.5791 186.985 40.1119 186.193 39.8666 185.323ZM69.2235 53.5569C68.9923 53.2978 68.6931 53.1089 68.36 53.012C68.0269 52.9149 67.6733 52.9137 67.3395 53.0083C67.0057 53.103 66.7052 53.2897 66.4722 53.5472C66.2393 53.8047 66.0831 54.1227 66.0218 54.4647L63.3165 69.1461C63.2632 69.4427 63.1384 69.7218 62.9532 69.9592C62.7679 70.1967 62.5277 70.3852 62.2533 70.5087L48.629 76.6024C48.316 76.7449 48.0487 76.9719 47.8572 77.258C47.6657 77.5441 47.5575 77.878 47.5448 78.2223C47.532 78.5665 47.6153 78.9075 47.7851 79.207C47.955 79.5066 48.2047 79.7529 48.5063 79.9181L61.6058 87.0429C62.1421 87.3351 62.4993 87.8726 62.5634 88.482L64.1555 103.342C64.1935 103.684 64.3262 104.01 64.5386 104.282C64.751 104.553 65.0347 104.759 65.3578 104.878C65.681 104.997 66.0308 105.023 66.3679 104.954C66.705 104.884 67.0162 104.721 67.2663 104.485L78.0818 94.1846C78.2988 93.9789 78.5623 93.8289 78.8498 93.7474C79.1373 93.666 79.4402 93.6557 79.7327 93.7166L94.3305 96.8109C94.6667 96.8786 95.0149 96.852 95.3357 96.7329C95.6573 96.6146 95.9396 96.4089 96.1517 96.1389C96.363 95.8689 96.4956 95.5457 96.535 95.2046C96.5743 94.8634 96.5179 94.518 96.3724 94.2068L89.9448 80.7076C89.8139 80.4372 89.7498 80.1387 89.7592 79.8381C89.7686 79.5375 89.8498 79.2435 89.9978 78.9817L97.4494 66.0299C97.6196 65.7308 97.7043 65.3899 97.6923 65.0457C97.6795 64.7013 97.5726 64.3672 97.3818 64.0807C97.1911 63.7941 96.9242 63.5666 96.6111 63.4233C96.2989 63.2802 95.9524 63.2272 95.6111 63.2702L80.8204 65.2334C80.5221 65.2723 80.2188 65.2377 79.9369 65.1328C79.6549 65.0278 79.4027 64.8556 79.2021 64.6311L69.2235 53.5569Z" fill="url(#paint0_linear_133_29537)"/>
<defs>
<linearGradient id="paint0_linear_133_29537" x1="26.0385" y1="6.25351" x2="172.708" y2="62.6829" gradientUnits="userSpaceOnUse">
<stop stop-color="#FF1CF7"/>
<stop offset="1" stop-color="#00F0FF"/>
</linearGradient>
</defs>
</svg>
