<svg width="37" height="62" viewBox="0 0 37 62" fill="none" xmlns="http://www.w3.org/2000/svg">
<path d="M29.0391 46.3044H33.8609V44.5861H29.0391V46.3044Z" fill="white"/>
<path d="M36.8312 40.3253V48.6085H34.9712V40.6579L34.7046 40.3253H28.1943L27.9277 40.6579V48.6085H26.0676V40.3253H27.6612L27.9277 39.9939V38.5604H34.9712V39.9927L35.239 40.3253H36.8312Z" fill="white"/>
<path d="M0.608398 38.5604V48.6086H11.372V46.5157L11.3619 46.5074H8.13647V43.8664L8.12814 43.8595H4.90269V41.2184L4.89274 41.2102H1.6673V38.5604H1.65884H0.608398Z" fill="#3300A3"/>
<path d="M15.1805 47.2012V48.6085H24.1298V46.8691H15.4195L15.2044 46.5955V38.5604H13.3579V46.8691H14.9192L15.1805 47.2012Z" fill="white"/>
<path d="M11.372 13.0234H0.608398V23.0998L11.372 13.0234Z" fill="#FF1CF7"/>
<path d="M36.8315 23.0998V21.3602H27.7998V18.9207H35.5792V17.2024H27.7998V14.7628H36.8315V13.0233H26.0815V14.7628V21.3602V23.0998H27.7998H36.8315Z" fill="white"/>
<path d="M15.095 18.0616V15.0808L15.3497 14.7416H22.138L22.3927 15.0808V17.7578L22.1645 18.0616H15.095ZM15.095 19.7798H19.2459V21.2077L21.6216 23.0998H22.9804V21.683L20.5602 19.7798H22.3927V18.3937L22.6421 18.0616H24.1109V14.7416H22.6155L22.3927 14.4449V13.0233H15.095V14.4449L14.8722 14.7416H13.3767V23.0998H15.095V19.7798Z" fill="white"/>
<path d="M26.0676 35.8614H36.8312V25.7846L26.0676 35.8614Z" fill="#00F0FF"/>
<path d="M13.3731 35.8614H15.0912H24.1149V34.1215H15.0912V32.0034L15.3327 31.682H22.8626V29.9637H15.3301L15.0912 29.6458V27.5241H24.1149V25.7846H13.3728V27.5241H13.3731V29.9673H14.8552L15.0912 30.2817V31.3676L14.8525 31.6855H13.3731V34.1215H13.3728V35.8614H13.3731Z" fill="white"/>
<path d="M2.40328 27.5033H9.29733L9.5633 27.8425V33.804L9.29733 34.1432H2.40328V27.5033ZM9.56342 35.8615V34.4399L9.79619 34.1431H11.3583V27.5033H9.79607L9.56342 27.2065V25.7846H2.40328H0.608398V27.5033V34.1432V35.8615H2.40328H9.56342Z" fill="white"/>
<path d="M26.0676 61.3842H36.8312V51.3078H34.5891H34.5802V54.3577H31.7505L31.7431 54.3655V57.376H28.9135L28.9046 57.3853V60.3958H26.075L26.0676 60.4037V61.3842Z" fill="#3300A3"/>
<path d="M15.0835 53.344L15.3223 53.026H22.1737L22.4041 53.3328V59.3591L22.1737 59.6658H15.3223L15.0835 59.3479V53.344ZM22.4041 52.6969V51.3077H15.0835V52.7081L14.8448 53.026H13.3652V59.6658H14.8448L15.0835 59.9839V61.3841H22.4041V59.9949L22.6511 59.6658H24.1224V53.026H22.6511L22.4041 52.6969Z" fill="white"/>
<path d="M9.57759 59.6446H8.12602L7.8833 59.3213V57.5608L5.03039 53.0473H4.29602L4.05728 52.7293V51.3077H2.31785H0.608643V53.0473V61.3842H2.31785V53.0473H3.81854L4.05728 53.3652V54.989L6.96864 59.6446H7.64854L7.8833 59.9572V61.3842H9.57759H9.62285H11.2868V51.3077H9.57759V59.6446Z" fill="white"/>
<path d="M15.0872 10.2464H24.1188V8.54636H15.0872V6.42831L15.3287 6.10676H22.8665V4.38847H15.3259L15.0872 4.07052V1.94887H24.1188V0.209441H15.0872H13.8659H13.3689V4.38847H14.8484L15.0872 4.70641V5.79242L14.8512 6.10676H13.3689V10.2464H13.8659H15.0872Z" fill="white"/>
<path d="M26.0676 0.209441H36.8312V10.2464H34.5891H34.5802V7.23591H31.7505L31.7431 7.22808V4.21762H28.9135L28.9046 4.2083V1.19784H26.075L26.0676 1.18988V0.209441Z" fill="#3300A3"/>
<path d="M9.64002 5.24087H9.6389H2.32681L2.34223 1.92776H9.64002V5.24087ZM0.608398 0.209472V10.2464H2.32681V6.95928H11.3583V0.209472H0.608398Z" fill="white"/>
</svg>
