<svg width="1920" height="1081" viewBox="0 0 1920 1081" fill="none" xmlns="http://www.w3.org/2000/svg">
<g opacity="0.05">
<path opacity="0.0144928" d="M1557.66 1350.87C1569.28 1357.04 1583.58 1354.77 1592.72 1345.31L1915.95 1011.01C1921.36 1005.42 1924.34 997.918 1924.25 990.138L1916.26 327.643C1916.19 321.525 1914.22 315.58 1910.62 310.632L1568.69 -159.385C1562.16 -168.357 1551.16 -172.912 1540.2 -171.176L1138.99 -107.631C1128.03 -105.896 1118.97 -98.1623 1115.54 -87.6124L935.589 465.061C933.694 470.879 933.654 477.143 935.475 482.985L1132.6 1115.52C1134.92 1122.95 1140.07 1129.17 1146.94 1132.81L1557.66 1350.87Z" stroke="url(#paint0_linear_51_1294)" stroke-width="5.13438"/>
<path opacity="0.0289855" d="M1485.13 1348.86C1496.39 1355.59 1510.75 1354.08 1520.36 1345.15L1858.72 1031.03C1864.44 1025.73 1867.82 1018.38 1868.14 1010.59L1894.9 354.659C1895.15 348.526 1893.49 342.468 1890.13 337.327L1575.33 -145.342C1569.28 -154.623 1558.54 -159.734 1547.52 -158.575L1145.92 -116.366C1134.9 -115.208 1125.46 -107.976 1121.47 -97.639L913.902 439.933C911.691 445.659 911.32 451.931 912.84 457.878L1075.4 1093.91C1077.33 1101.46 1082.16 1107.95 1088.85 1111.94L1485.13 1348.86Z" stroke="url(#paint1_linear_51_1294)" stroke-width="5.13438"/>
<path opacity="0.0434783" d="M1413.16 1344.64C1424.03 1351.92 1438.4 1351.17 1448.46 1342.79L1800.73 1049.5C1806.73 1044.51 1810.51 1037.34 1811.24 1029.57L1872.05 382C1872.62 375.871 1871.27 369.715 1868.17 364.394L1580.88 -129.39C1575.32 -138.955 1564.87 -144.605 1553.82 -144.026L1152.96 -123.018C1141.91 -122.438 1132.11 -115.728 1127.57 -105.633L893.475 415.475C890.952 421.091 890.248 427.355 891.461 433.391L1019.63 1071.06C1021.17 1078.71 1025.67 1085.44 1032.16 1089.78L1413.16 1344.64Z" stroke="url(#paint2_linear_51_1294)" stroke-width="5.13438"/>
<path opacity="0.057971" d="M1341.85 1338.28C1352.32 1346.08 1366.66 1346.08 1377.13 1338.28L1742.06 1066.41C1748.33 1061.74 1752.49 1054.78 1753.63 1047.04L1847.69 409.586C1848.59 403.477 1847.55 397.239 1844.72 391.75L1585.24 -111.605C1580.18 -121.428 1570.05 -127.6 1559 -127.6L1159.98 -127.6C1148.93 -127.6 1138.81 -121.428 1133.74 -111.605L874.262 391.75C871.433 397.239 870.396 403.477 871.297 409.586L965.348 1047.04C966.489 1054.78 970.649 1061.74 976.917 1066.41L1341.85 1338.28Z" stroke="url(#paint3_linear_51_1294)" stroke-width="5.13438"/>
<path opacity="0.0724638" d="M1271.33 1329.83C1281.36 1338.13 1295.64 1338.87 1306.48 1331.67L1682.81 1081.73C1689.33 1077.4 1693.87 1070.66 1695.42 1062.99L1821.82 437.332C1823.05 431.259 1822.33 424.955 1819.78 419.312L1588.31 -92.0705C1583.76 -102.125 1573.98 -108.802 1562.96 -109.379L1166.89 -130.137C1155.87 -130.714 1145.44 -125.096 1139.87 -115.573L856.218 368.814C853.088 374.159 851.719 380.354 852.304 386.521L912.614 1021.96C913.354 1029.76 917.158 1036.94 923.19 1041.92L1271.33 1329.83Z" stroke="url(#paint4_linear_51_1294)" stroke-width="5.13438"/>
<path opacity="0.0869565" d="M1201.7 1319.35C1211.27 1328.12 1225.44 1329.61 1236.63 1323.02L1623.06 1095.46C1629.82 1091.48 1634.71 1084.98 1636.67 1077.38L1794.45 465.154C1796 459.136 1795.61 452.782 1793.34 446.997L1590.02 -70.8727C1585.99 -81.1314 1576.59 -88.2926 1565.63 -89.4446L1173.56 -130.652C1162.6 -131.804 1151.91 -126.755 1145.84 -117.558L839.291 346.723C835.867 351.909 834.167 358.043 834.433 364.252L861.472 995.907C861.807 1003.74 865.244 1011.12 871.025 1016.41L1201.7 1319.35Z" stroke="url(#paint5_linear_51_1294)" stroke-width="5.13438"/>
<path opacity="0.101449" d="M1133.06 1306.91C1142.15 1316.13 1156.18 1318.35 1167.67 1312.39L1562.9 1107.56C1569.88 1103.95 1575.12 1097.71 1577.48 1090.22L1765.57 492.97C1767.45 487.024 1767.39 480.637 1765.41 474.725L1590.28 -48.1023C1586.78 -58.5377 1577.77 -66.1628 1566.9 -67.8844L1179.9 -129.18C1169.03 -130.902 1158.1 -126.434 1151.55 -117.59L823.428 325.53C819.718 330.54 817.689 336.597 817.633 342.831L811.962 968.975C811.891 976.827 814.95 984.384 820.464 989.974L1133.06 1306.91Z" stroke="url(#paint6_linear_51_1294)" stroke-width="5.13438"/>
<path opacity="0.115942" d="M1065.51 1292.59C1074.1 1302.22 1087.94 1305.16 1099.7 1299.85L1502.43 1118.05C1509.6 1114.82 1515.18 1108.86 1517.93 1101.49L1735.22 520.699C1737.41 514.841 1737.68 508.438 1736 502.413L1589.01 -23.8541C1586.06 -34.4387 1577.47 -42.5052 1566.72 -44.79L1185.79 -125.759C1175.04 -128.044 1163.91 -124.169 1156.91 -115.702L808.576 305.283C804.588 310.102 802.234 316.064 801.854 322.307L764.122 941.263C763.644 949.113 766.317 956.83 771.549 962.701L1065.51 1292.59Z" stroke="url(#paint7_linear_51_1294)" stroke-width="5.13438"/>
<path opacity="0.130435" d="M999.147 1276.45C1007.21 1286.48 1020.83 1290.13 1032.83 1285.48L1441.72 1126.92C1449.07 1124.08 1454.97 1118.41 1458.12 1111.19L1703.38 548.26C1705.89 542.507 1706.5 536.104 1705.12 529.982L1586.16 1.77348C1583.75 -8.93186 1575.6 -17.4167 1565 -20.2568L1191.14 -120.432C1180.54 -123.272 1169.24 -119.999 1161.8 -111.933L794.674 286.029C790.418 290.642 787.744 296.491 787.038 302.727L717.98 912.871C717.095 920.698 719.373 928.554 724.309 934.692L999.147 1276.45Z" stroke="url(#paint8_linear_51_1294)" stroke-width="5.13438"/>
<path opacity="0.144928" d="M934.051 1258.6C941.572 1268.98 954.94 1273.33 967.131 1269.35L1380.88 1134.18C1388.38 1131.73 1394.58 1126.38 1398.11 1119.32L1670.09 575.575C1672.91 569.943 1673.85 563.558 1672.78 557.352L1581.65 28.6806C1579.79 17.8828 1572.1 9.00392 1561.68 5.61801L1195.85 -113.247C1185.43 -116.633 1173.99 -113.969 1166.14 -106.328L781.665 267.81C777.152 272.202 774.161 277.921 773.13 284.133L673.563 883.899C672.27 891.682 674.147 899.658 678.774 906.048L934.051 1258.6Z" stroke="url(#paint9_linear_51_1294)" stroke-width="5.13438"/>
<path opacity="0.15942" d="M870.308 1239.1C877.274 1249.82 890.349 1254.84 902.7 1251.54L1319.98 1139.82C1327.61 1137.77 1334.1 1132.76 1338.01 1125.89L1635.38 602.564C1638.5 597.071 1639.77 590.721 1639.02 584.447L1575.43 56.7628C1574.13 45.901 1566.92 36.6535 1556.7 32.7328L1199.83 -104.26C1189.61 -108.18 1178.07 -106.131 1169.83 -98.9352L769.486 250.665C764.727 254.822 761.427 260.395 760.07 266.567L630.887 854.447C629.191 862.165 630.66 870.241 634.965 876.868L870.308 1239.1Z" stroke="url(#paint10_linear_51_1294)" stroke-width="5.13438"/>
<path opacity="0.173913" d="M807.995 1218.06C814.39 1229.08 827.138 1234.76 839.611 1232.14L1259.1 1143.87C1266.85 1142.24 1273.62 1137.56 1277.89 1130.9L1599.25 629.153C1602.67 623.814 1604.28 617.515 1603.84 611.19L1567.46 85.9138C1566.7 75.0165 1559.99 65.4265 1550.01 60.9835L1202.98 -93.5275C1193 -97.9704 1181.38 -96.5401 1172.78 -89.8094L758.075 234.629C753.082 238.536 749.478 243.947 747.799 250.061L589.965 824.616C587.868 832.249 588.924 840.403 592.896 847.25L807.995 1218.06Z" stroke="url(#paint11_linear_51_1294)" stroke-width="5.13438"/>
<path opacity="0.188406" d="M747.182 1195.56C752.994 1206.86 765.382 1213.17 777.939 1211.24L1198.35 1146.33C1206.18 1145.12 1213.2 1140.81 1217.83 1134.37L1561.76 655.268C1565.47 650.098 1567.41 643.869 1567.29 637.507L1557.68 116.026C1557.48 105.122 1551.28 95.2165 1541.57 90.2653L1205.22 -81.1129C1195.5 -86.0642 1183.84 -85.2548 1174.9 -79.0081L747.368 219.735C742.152 223.38 738.254 228.612 736.253 234.652L550.805 794.508C548.312 802.034 548.951 810.247 552.578 817.297L747.182 1195.56Z" stroke="url(#paint12_linear_51_1294)" stroke-width="5.13438"/>
<path opacity="0.202899" d="M687.936 1171.72C693.154 1183.25 705.15 1190.18 717.752 1188.93L1137.79 1147.24C1145.7 1146.46 1152.95 1142.53 1157.92 1136.33L1522.93 680.835C1526.92 675.852 1529.19 669.709 1529.4 663.326L1546.06 146.989C1546.42 136.106 1540.75 125.913 1531.32 120.469L1206.47 -67.0845C1197.04 -72.5288 1185.38 -72.3405 1176.13 -66.5949L737.3 206.009C731.875 209.379 727.69 214.416 725.371 220.366L513.408 764.222C510.524 771.621 510.743 779.871 514.015 787.107L687.936 1171.72Z" stroke="url(#paint13_linear_51_1294)" stroke-width="5.13438"/>
<path opacity="0.217391" d="M630.314 1146.61C634.928 1158.36 646.501 1165.88 659.111 1165.31L1077.51 1146.63C1085.46 1146.27 1092.93 1142.72 1098.22 1136.79L1482.8 705.788C1487.06 701.006 1489.66 694.965 1490.19 688.578L1532.58 178.694C1533.48 167.861 1528.35 157.409 1519.24 151.488L1206.64 -51.5112C1197.53 -57.4317 1185.89 -57.8631 1176.36 -52.6341L727.802 193.478C722.183 196.56 717.72 201.388 715.087 207.231L477.769 733.86C474.501 741.112 474.298 749.377 477.206 756.781L630.314 1146.61Z" stroke="url(#paint14_linear_51_1294)" stroke-width="5.13438"/>
<path opacity="0.231884" d="M574.371 1120.36C578.373 1132.28 589.494 1140.36 602.073 1140.48L1017.59 1144.5C1025.56 1144.58 1033.22 1141.43 1038.83 1135.78L1441.42 730.058C1445.95 725.492 1448.86 719.571 1449.72 713.196L1517.2 211.027C1518.64 200.271 1514.07 189.59 1505.29 183.211L1205.68 -34.4696C1196.9 -40.8485 1185.33 -41.8962 1175.55 -37.1979L718.809 182.159C713.011 184.944 708.28 189.547 705.338 195.267L443.88 703.519C440.235 710.605 439.609 718.864 442.144 726.418L574.371 1120.36Z" stroke="url(#paint15_linear_51_1294)" stroke-width="5.13438"/>
<path opacity="0.246377" d="M520.151 1093.06C523.537 1105.13 534.177 1113.74 546.688 1114.55L958.102 1140.92C966.069 1141.43 973.902 1138.69 979.817 1133.33L1398.82 753.583C1403.61 749.247 1406.84 743.462 1408.02 737.115L1499.91 243.878C1501.89 233.228 1497.89 222.346 1489.47 215.528L1203.51 -16.0358C1195.09 -22.8538 1183.61 -24.5125 1173.61 -20.3572L710.253 172.073C704.29 174.549 699.303 178.912 696.057 184.493L411.723 673.299C407.71 680.199 406.661 688.43 408.817 696.116L520.151 1093.06Z" stroke="url(#paint16_linear_51_1294)" stroke-width="5.13438"/>
<path opacity="0.26087" d="M467.695 1064.81C470.46 1077 480.594 1086.12 492.999 1087.6L899.119 1135.9C907.059 1136.85 915.043 1134.53 921.244 1129.48L1355.07 776.3C1360.1 772.208 1363.64 766.576 1365.15 760.273L1480.7 277.134C1483.21 266.616 1479.78 255.564 1471.74 248.327L1200.06 3.70789C1192.03 -3.52871 1180.68 -5.79155 1170.48 -2.19015L702.064 163.23C695.953 165.388 690.721 169.498 687.177 174.924L381.278 643.294C376.906 649.989 375.436 658.171 377.205 665.97L467.695 1064.81Z" stroke="url(#paint17_linear_51_1294)" stroke-width="5.13438"/>
<path opacity="0.275362" d="M417.037 1035.74C419.178 1048.01 428.781 1057.61 441.045 1059.75L840.711 1129.5C848.603 1130.88 856.715 1128.99 863.186 1124.27L1310.22 798.153C1315.47 794.319 1319.31 788.855 1321.15 782.612L1459.56 310.684C1462.6 300.324 1459.74 289.133 1452.11 281.499L1195.29 24.6784C1187.65 17.0447 1176.46 14.1865 1166.1 17.2248L694.175 155.641C687.931 157.472 682.468 161.315 678.633 166.571L352.519 613.6C347.798 620.071 345.909 628.184 347.286 636.075L417.037 1035.74Z" stroke="url(#paint18_linear_51_1294)" stroke-width="5.13438"/>
<path opacity="0.289855" d="M368.203 1005.94C369.719 1018.25 378.768 1028.3 390.854 1031.1L782.947 1121.75C790.765 1123.56 798.983 1122.11 805.708 1117.73L1264.3 819.082C1269.78 815.517 1273.92 810.238 1276.07 804.071L1436.5 344.411C1440.05 334.236 1437.78 322.936 1430.56 314.927L1189.13 46.7849C1181.92 38.7767 1170.92 35.3335 1160.43 37.8016L686.515 149.306C680.156 150.802 674.474 154.365 670.357 159.436L325.412 584.303C320.354 590.534 318.05 598.554 319.03 606.519L368.203 1005.94Z" stroke="url(#paint19_linear_51_1294)" stroke-width="5.13438"/>
<path opacity="0.304348" d="M321.217 975.529C322.109 987.855 330.584 998.322 342.456 1001.76L725.893 1112.71C733.616 1114.95 741.916 1113.94 748.876 1109.91L1217.4 839.045C1223.08 835.762 1227.5 830.683 1229.97 824.608L1411.52 378.215C1415.57 368.251 1413.89 356.872 1407.12 348.513L1181.54 69.9489C1174.77 61.5899 1163.99 57.5737 1153.4 59.4658L679.02 144.237C672.564 145.391 666.676 148.661 662.285 153.532L299.925 555.504C294.542 561.475 291.828 569.383 292.408 577.402L321.217 975.529Z" stroke="url(#paint20_linear_51_1294)" stroke-width="5.13438"/>
<path opacity="0.318841" d="M276.091 944.612C276.362 956.922 284.244 967.771 295.868 971.833L669.609 1102.43C677.213 1105.09 685.571 1104.52 692.748 1100.87L1169.57 857.989C1175.43 855.001 1180.13 850.136 1182.92 844.169L1384.64 411.982C1389.19 402.254 1388.09 390.828 1381.78 382.143L1172.48 94.0754C1166.17 85.3901 1155.65 80.8149 1144.99 82.1271L671.62 140.428C665.084 141.233 659.006 144.199 654.35 148.856L276.015 527.283C270.321 532.979 267.2 540.754 267.378 548.806L276.091 944.612Z" stroke="url(#paint21_linear_51_1294)" stroke-width="5.13438"/>
<path opacity="0.333333" d="M232.834 913.3C232.488 925.562 239.76 936.759 251.102 941.43L614.153 1090.96C621.614 1094.03 630.007 1093.92 637.382 1090.64L1120.86 875.872C1126.9 873.187 1131.87 868.552 1134.96 862.71L1355.89 445.607C1360.9 436.138 1360.39 424.696 1354.56 415.709L1161.92 119.074C1156.08 110.087 1145.84 104.968 1135.15 105.699L664.247 137.872C657.651 138.323 651.397 140.975 646.487 145.403L253.636 499.726C247.644 505.13 244.125 512.751 243.898 520.817L232.834 913.3Z" stroke="url(#paint22_linear_51_1294)" stroke-width="5.13438"/>
<path opacity="0.347826" d="M191.448 881.701C190.492 893.882 197.138 905.393 208.165 910.656L559.579 1078.36C566.875 1081.84 575.28 1082.18 582.831 1079.29L1071.35 892.651C1077.55 890.282 1082.77 885.89 1086.17 880.187L1325.27 478.984C1330.75 469.798 1330.83 458.369 1325.48 449.108L1149.82 144.851C1144.47 135.59 1134.53 129.944 1123.84 130.092L656.837 136.561C650.198 136.653 643.784 138.981 638.631 143.167L232.737 472.912C226.463 478.009 222.553 485.457 221.92 493.516L191.448 881.701Z" stroke="url(#paint23_linear_51_1294)" stroke-width="5.13438"/>
<path opacity="0.362319" d="M151.928 849.923C150.369 861.993 156.376 873.782 167.058 879.615L505.939 1064.68C513.047 1068.57 521.438 1069.36 529.147 1066.87L1021.09 908.292C1027.44 906.246 1032.91 902.112 1036.6 896.563L1292.84 512.009C1298.76 503.128 1299.42 491.745 1294.58 482.236L1136.15 171.313C1131.31 161.805 1121.71 155.651 1111.05 155.218L649.323 136.483C642.661 136.213 636.103 138.206 630.718 142.138L213.265 446.92C206.724 451.695 202.432 458.949 201.394 466.982L151.928 849.923Z" stroke="url(#paint24_linear_51_1294)" stroke-width="5.13438"/>
<path opacity="0.376812" d="M114.264 818.072C112.111 830 117.468 842.032 127.773 848.414L453.277 1050C460.176 1054.27 468.529 1055.52 476.374 1053.44L970.168 922.762C976.642 921.048 982.341 917.185 986.33 911.806L1258.62 544.586C1264.97 536.031 1266.21 524.723 1261.88 514.994L1120.91 198.369C1116.58 188.64 1107.34 181.998 1096.74 180.988L641.641 137.623C634.975 136.988 628.29 138.638 622.685 142.303L195.16 421.823C188.369 426.263 183.704 433.304 182.263 441.289L114.264 818.072Z" stroke="url(#paint25_linear_51_1294)" stroke-width="5.13438"/>
<path opacity="0.391304" d="M78.439 786.252C75.7035 798.01 80.4013 810.248 90.3015 817.155L401.638 1034.36C408.306 1039.02 416.597 1040.71 424.557 1039.05L918.64 936.031C925.225 934.658 931.143 931.078 935.416 925.883L1222.66 576.615C1229.41 568.407 1231.23 557.204 1227.42 547.282L1104.06 225.924C1100.26 216.002 1091.41 208.893 1080.9 207.31L633.728 139.96C627.077 138.958 620.283 140.258 614.471 143.643L178.361 397.69C171.335 401.782 166.309 408.591 164.466 416.509L78.439 786.252Z" stroke="url(#paint26_linear_51_1294)" stroke-width="5.13438"/>
<path opacity="0.405797" d="M44.4325 754.568C41.1265 766.125 45.158 778.533 54.6259 785.94L351.063 1017.85C357.479 1022.87 365.684 1025.01 373.735 1023.77L866.582 948.076C873.26 947.051 879.384 943.765 883.932 938.769L1185.01 608.005C1192.15 600.163 1194.54 589.094 1191.26 579.009L1085.62 253.883C1082.34 243.797 1073.91 236.244 1063.52 234.096L625.524 143.473C618.908 142.104 612.023 143.046 606.017 146.141L162.802 374.588C155.561 378.32 150.184 384.878 147.944 392.71L44.4325 754.568Z" stroke="url(#paint27_linear_51_1294)" stroke-width="5.13438"/>
<path opacity="0.42029" d="M12.2142 723.119C8.35149 734.448 11.7117 746.989 20.7215 754.869L301.583 1000.51C307.727 1005.89 315.822 1008.48 323.944 1007.67L814.061 958.877C820.815 958.204 827.131 955.225 831.946 950.442L1145.72 638.664C1153.23 631.206 1156.17 620.301 1153.43 610.081L1065.56 282.154C1062.82 271.934 1054.83 263.96 1044.6 261.254L616.968 148.136C610.407 146.4 603.448 146.978 597.263 149.773L148.413 352.577C140.975 355.938 135.26 362.229 132.626 369.954L12.2142 723.119Z" stroke="url(#paint28_linear_51_1294)" stroke-width="5.13438"/>
<path opacity="0.434783" d="M-18.2479 692.003C-22.652 703.077 -19.9661 715.713 -11.4386 724.038L253.233 982.429C259.085 988.142 267.045 991.172 275.214 990.796L761.153 968.416C767.965 968.102 774.457 965.44 779.529 960.882L1104.85 668.508C1112.7 661.451 1116.19 650.738 1114 640.412L1043.9 310.645C1041.71 300.319 1034.16 291.95 1024.12 288.697L608.004 153.92C601.517 151.819 594.503 152.028 588.153 154.512L135.123 331.716C127.506 334.696 121.467 340.701 118.444 348.3L-18.2479 692.003Z" stroke="url(#paint29_linear_51_1294)" stroke-width="5.13438"/>
<path opacity="0.449275" d="M-46.9926 661.317C-51.9216 672.109 -49.911 684.804 -41.8882 693.545L206.038 963.665C211.579 969.703 219.381 973.165 227.575 973.224L707.929 976.682C714.779 976.731 721.434 974.396 726.752 970.078L1062.46 697.454C1070.64 690.814 1074.66 680.321 1073.01 669.918L1020.64 339.265C1018.99 328.861 1011.93 320.124 1002.1 316.336L598.574 160.796C592.182 158.332 585.132 158.168 578.632 160.332L122.857 312.057C115.081 314.645 108.732 320.349 105.327 327.804L-46.9926 661.317Z" stroke="url(#paint30_linear_51_1294)" stroke-width="5.13438"/>
<path opacity="0.463768" d="M-74.0638 631.151C-79.4998 641.637 -78.1632 654.353 -70.666 663.479L160.022 944.291C165.235 950.636 172.854 954.523 181.051 955.019L654.462 983.666C661.333 984.082 668.133 982.084 673.687 978.017L1018.62 725.425C1027.1 719.216 1031.64 708.97 1030.54 698.52L995.795 367.923C994.697 357.473 988.126 348.394 978.543 344.084L588.627 168.728C582.349 165.904 575.282 165.364 568.647 167.199L111.538 293.647C103.624 295.837 96.9786 301.223 93.1992 308.514L-74.0638 631.151Z" stroke="url(#paint31_linear_51_1294)" stroke-width="5.13438"/>
<path opacity="0.478261" d="M-99.5115 601.595C-105.435 611.75 -104.77 624.451 -97.8168 633.931L115.203 924.375C120.069 931.01 127.484 935.313 135.66 936.247L600.822 989.365C607.695 990.15 614.625 988.496 620.403 984.693L973.402 752.347C982.158 746.584 987.201 736.61 986.653 726.142L969.378 396.531C968.83 386.063 962.771 376.671 953.461 371.855L578.11 177.68C571.966 174.502 564.901 173.582 558.148 175.081L101.085 276.53C93.0523 278.313 86.1279 283.368 81.9816 290.476L-99.5115 601.595Z" stroke="url(#paint32_linear_51_1294)" stroke-width="5.13438"/>
<path opacity="0.492754" d="M-123.386 572.738C-129.777 582.539 -129.777 595.189 -123.386 604.99L71.5985 903.993C76.1026 910.9 83.2898 915.608 91.4207 916.979L547.087 993.783C553.942 994.938 560.985 993.638 566.975 990.11L926.875 778.158C935.885 772.852 941.417 763.175 941.417 752.719L941.417 425.009C941.417 414.553 935.885 404.876 926.875 399.57L566.975 187.618C560.985 184.09 553.942 182.79 547.087 183.945L91.4207 260.749C83.2898 262.12 76.1025 266.828 71.5985 273.735L-123.386 572.738Z" stroke="url(#paint33_linear_51_1294)" stroke-width="5.13438"/>
<path opacity="0.507246" d="M-145.748 544.651C-152.585 554.077 -153.244 566.641 -147.429 576.729L29.2169 883.206C33.3432 890.365 40.2807 895.467 48.344 897.273L493.324 996.915C500.143 998.442 507.281 997.501 513.471 994.259L879.119 802.784C888.359 797.946 894.36 788.591 894.906 778.176L911.934 453.262C912.48 442.846 907.489 432.916 898.806 427.138L555.176 198.491C549.358 194.621 542.357 192.939 535.417 193.744L82.4586 246.327C74.2508 247.28 66.8179 251.629 61.9659 258.318L-145.748 544.651Z" stroke="url(#paint34_linear_51_1294)" stroke-width="5.13438"/>
<path opacity="0.521739" d="M-166.658 517.417C-173.92 526.446 -175.227 538.889 -170.002 549.231L-11.935 862.089C-8.20095 869.479 -1.53465 874.962 6.43779 877.2L439.605 998.773C446.367 1000.67 453.584 1000.1 459.96 997.152L830.214 826.172C839.658 821.811 846.11 812.801 847.198 802.455L880.961 481.214C882.049 470.868 877.611 460.713 869.28 454.484L542.666 210.261C537.041 206.055 530.102 203.992 523.093 204.442L74.1146 233.298C65.8511 233.83 58.1905 237.807 53.0014 244.26L-166.658 517.417Z" stroke="url(#paint35_linear_51_1294)" stroke-width="5.13438"/>
<path opacity="0.536232" d="M-186.183 491.107C-193.845 499.722 -195.791 512.008 -191.167 522.569L-51.8534 840.711C-48.5248 848.312 -42.1507 854.162 -34.2921 856.827L386.002 999.37C392.688 1001.64 399.965 1001.43 406.514 998.797L780.243 848.269C789.867 844.392 796.75 835.749 798.373 825.502L848.536 508.785C850.159 498.538 846.284 488.191 838.329 481.531L529.407 222.881C523.994 218.349 517.136 215.906 510.076 215.997L66.3045 221.686C58.0069 221.792 50.1371 225.385 44.6224 231.586L-186.183 491.107Z" stroke="url(#paint36_linear_51_1294)" stroke-width="5.13438"/>
</g>
<defs>
<linearGradient id="paint0_linear_51_1294" x1="1577.78" y1="1364.46" x2="1317.35" y2="-279.848" gradientUnits="userSpaceOnUse">
<stop stop-color="#FF1CF7"/>
<stop offset="1" stop-color="#00F0FF"/>
</linearGradient>
<linearGradient id="paint1_linear_51_1294" x1="1504.47" y1="1363.41" x2="1331.99" y2="-277.661" gradientUnits="userSpaceOnUse">
<stop stop-color="#FF1CF7"/>
<stop offset="1" stop-color="#00F0FF"/>
</linearGradient>
<linearGradient id="paint2_linear_51_1294" x1="1431.67" y1="1360.12" x2="1346.08" y2="-273.06" gradientUnits="userSpaceOnUse">
<stop stop-color="#FF1CF7"/>
<stop offset="1" stop-color="#00F0FF"/>
</linearGradient>
<linearGradient id="paint3_linear_51_1294" x1="1359.49" y1="1354.62" x2="1359.49" y2="-266.098" gradientUnits="userSpaceOnUse">
<stop stop-color="#FF1CF7"/>
<stop offset="1" stop-color="#00F0FF"/>
</linearGradient>
<linearGradient id="paint4_linear_51_1294" x1="1288.06" y1="1346.99" x2="1372.11" y2="-256.835" gradientUnits="userSpaceOnUse">
<stop stop-color="#FF1CF7"/>
<stop offset="1" stop-color="#00F0FF"/>
</linearGradient>
<linearGradient id="paint5_linear_51_1294" x1="1217.47" y1="1337.28" x2="1383.81" y2="-245.336" gradientUnits="userSpaceOnUse">
<stop stop-color="#FF1CF7"/>
<stop offset="1" stop-color="#00F0FF"/>
</linearGradient>
<linearGradient id="paint6_linear_51_1294" x1="1147.84" y1="1325.56" x2="1394.49" y2="-231.673" gradientUnits="userSpaceOnUse">
<stop stop-color="#FF1CF7"/>
<stop offset="1" stop-color="#00F0FF"/>
</linearGradient>
<linearGradient id="paint7_linear_51_1294" x1="1079.28" y1="1311.89" x2="1404.02" y2="-215.924" gradientUnits="userSpaceOnUse">
<stop stop-color="#FF1CF7"/>
<stop offset="1" stop-color="#00F0FF"/>
</linearGradient>
<linearGradient id="paint8_linear_51_1294" x1="1011.86" y1="1296.36" x2="1412.32" y2="-198.171" gradientUnits="userSpaceOnUse">
<stop stop-color="#FF1CF7"/>
<stop offset="1" stop-color="#00F0FF"/>
</linearGradient>
<linearGradient id="paint9_linear_51_1294" x1="945.691" y1="1279.05" x2="1419.28" y2="-178.502" gradientUnits="userSpaceOnUse">
<stop stop-color="#FF1CF7"/>
<stop offset="1" stop-color="#00F0FF"/>
</linearGradient>
<linearGradient id="paint10_linear_51_1294" x1="880.852" y1="1260.04" x2="1424.81" y2="-157.009" gradientUnits="userSpaceOnUse">
<stop stop-color="#FF1CF7"/>
<stop offset="1" stop-color="#00F0FF"/>
</linearGradient>
<linearGradient id="paint11_linear_51_1294" x1="817.422" y1="1239.43" x2="1428.82" y2="-133.789" gradientUnits="userSpaceOnUse">
<stop stop-color="#FF1CF7"/>
<stop offset="1" stop-color="#00F0FF"/>
</linearGradient>
<linearGradient id="paint12_linear_51_1294" x1="755.478" y1="1217.3" x2="1431.23" y2="-108.944" gradientUnits="userSpaceOnUse">
<stop stop-color="#FF1CF7"/>
<stop offset="1" stop-color="#00F0FF"/>
</linearGradient>
<linearGradient id="paint13_linear_51_1294" x1="695.087" y1="1193.76" x2="1431.98" y2="-82.5776" gradientUnits="userSpaceOnUse">
<stop stop-color="#FF1CF7"/>
<stop offset="1" stop-color="#00F0FF"/>
</linearGradient>
<linearGradient id="paint14_linear_51_1294" x1="636.31" y1="1168.9" x2="1430.99" y2="-54.7963" gradientUnits="userSpaceOnUse">
<stop stop-color="#FF1CF7"/>
<stop offset="1" stop-color="#00F0FF"/>
</linearGradient>
<linearGradient id="paint15_linear_51_1294" x1="579.206" y1="1142.83" x2="1428.2" y2="-25.7123" gradientUnits="userSpaceOnUse">
<stop stop-color="#FF1CF7"/>
<stop offset="1" stop-color="#00F0FF"/>
</linearGradient>
<linearGradient id="paint16_linear_51_1294" x1="523.823" y1="1115.65" x2="1423.56" y2="4.56365" gradientUnits="userSpaceOnUse">
<stop stop-color="#FF1CF7"/>
<stop offset="1" stop-color="#00F0FF"/>
</linearGradient>
<linearGradient id="paint17_linear_51_1294" x1="470.203" y1="1087.47" x2="1417.03" y2="35.9153" gradientUnits="userSpaceOnUse">
<stop stop-color="#FF1CF7"/>
<stop offset="1" stop-color="#00F0FF"/>
</linearGradient>
<linearGradient id="paint18_linear_51_1294" x1="418.386" y1="1058.4" x2="1408.56" y2="68.2272" gradientUnits="userSpaceOnUse">
<stop stop-color="#FF1CF7"/>
<stop offset="1" stop-color="#00F0FF"/>
</linearGradient>
<linearGradient id="paint19_linear_51_1294" x1="368.399" y1="1028.54" x2="1398.12" y2="101.377" gradientUnits="userSpaceOnUse">
<stop stop-color="#FF1CF7"/>
<stop offset="1" stop-color="#00F0FF"/>
</linearGradient>
<linearGradient id="paint20_linear_51_1294" x1="320.27" y1="998.009" x2="1385.68" y2="135.256" gradientUnits="userSpaceOnUse">
<stop stop-color="#FF1CF7"/>
<stop offset="1" stop-color="#00F0FF"/>
</linearGradient>
<linearGradient id="paint21_linear_51_1294" x1="274.014" y1="966.916" x2="1371.23" y2="169.741" gradientUnits="userSpaceOnUse">
<stop stop-color="#FF1CF7"/>
<stop offset="1" stop-color="#00F0FF"/>
</linearGradient>
<linearGradient id="paint22_linear_51_1294" x1="229.644" y1="935.369" x2="1354.75" y2="204.713" gradientUnits="userSpaceOnUse">
<stop stop-color="#FF1CF7"/>
<stop offset="1" stop-color="#00F0FF"/>
</linearGradient>
<linearGradient id="paint23_linear_51_1294" x1="187.163" y1="903.478" x2="1336.25" y2="240.054" gradientUnits="userSpaceOnUse">
<stop stop-color="#FF1CF7"/>
<stop offset="1" stop-color="#00F0FF"/>
</linearGradient>
<linearGradient id="paint24_linear_51_1294" x1="146.572" y1="871.353" x2="1315.71" y2="275.647" gradientUnits="userSpaceOnUse">
<stop stop-color="#FF1CF7"/>
<stop offset="1" stop-color="#00F0FF"/>
</linearGradient>
<linearGradient id="paint25_linear_51_1294" x1="107.86" y1="839.102" x2="1293.15" y2="311.377" gradientUnits="userSpaceOnUse">
<stop stop-color="#FF1CF7"/>
<stop offset="1" stop-color="#00F0FF"/>
</linearGradient>
<linearGradient id="paint26_linear_51_1294" x1="71.0155" y1="806.83" x2="1268.58" y2="347.128" gradientUnits="userSpaceOnUse">
<stop stop-color="#FF1CF7"/>
<stop offset="1" stop-color="#00F0FF"/>
</linearGradient>
<linearGradient id="paint27_linear_51_1294" x1="36.0197" y1="774.643" x2="1242.03" y2="382.787" gradientUnits="userSpaceOnUse">
<stop stop-color="#FF1CF7"/>
<stop offset="1" stop-color="#00F0FF"/>
</linearGradient>
<linearGradient id="paint28_linear_51_1294" x1="2.84483" y1="742.644" x2="1213.52" y2="418.246" gradientUnits="userSpaceOnUse">
<stop stop-color="#FF1CF7"/>
<stop offset="1" stop-color="#00F0FF"/>
</linearGradient>
<linearGradient id="paint29_linear_51_1294" x1="-28.5386" y1="710.932" x2="1183.08" y2="453.395" gradientUnits="userSpaceOnUse">
<stop stop-color="#FF1CF7"/>
<stop offset="1" stop-color="#00F0FF"/>
</linearGradient>
<linearGradient id="paint30_linear_51_1294" x1="-58.1672" y1="679.605" x2="1150.75" y2="488.131" gradientUnits="userSpaceOnUse">
<stop stop-color="#FF1CF7"/>
<stop offset="1" stop-color="#00F0FF"/>
</linearGradient>
<linearGradient id="paint31_linear_51_1294" x1="-86.0827" y1="648.757" x2="1116.59" y2="522.351" gradientUnits="userSpaceOnUse">
<stop stop-color="#FF1CF7"/>
<stop offset="1" stop-color="#00F0FF"/>
</linearGradient>
<linearGradient id="paint32_linear_51_1294" x1="-112.333" y1="618.479" x2="1080.63" y2="555.959" gradientUnits="userSpaceOnUse">
<stop stop-color="#FF1CF7"/>
<stop offset="1" stop-color="#00F0FF"/>
</linearGradient>
<linearGradient id="paint33_linear_51_1294" x1="-136.967" y1="588.864" x2="1042.94" y2="588.864" gradientUnits="userSpaceOnUse">
<stop stop-color="#FF1CF7"/>
<stop offset="1" stop-color="#00F0FF"/>
</linearGradient>
<linearGradient id="paint34_linear_51_1294" x1="-160.043" y1="559.985" x2="1003.58" y2="620.968" gradientUnits="userSpaceOnUse">
<stop stop-color="#FF1CF7"/>
<stop offset="1" stop-color="#00F0FF"/>
</linearGradient>
<linearGradient id="paint35_linear_51_1294" x1="-181.621" y1="531.927" x2="962.599" y2="652.189" gradientUnits="userSpaceOnUse">
<stop stop-color="#FF1CF7"/>
<stop offset="1" stop-color="#00F0FF"/>
</linearGradient>
<linearGradient id="paint36_linear_51_1294" x1="-201.765" y1="504.765" x2="920.079" y2="682.448" gradientUnits="userSpaceOnUse">
<stop stop-color="#FF1CF7"/>
<stop offset="1" stop-color="#00F0FF"/>
</linearGradient>
</defs>
</svg>
