<svg width="34" height="35" viewBox="0 0 34 35" fill="none" xmlns="http://www.w3.org/2000/svg">
<path fill-rule="evenodd" clip-rule="evenodd" d="M16.7804 0.989838C25.9888 0.989838 33.4471 8.44817 33.4471 17.6565V32.2398C33.4471 33.3926 32.5165 34.3232 31.3638 34.3232C30.211 34.3232 29.2804 33.3926 29.2804 32.2398V28.6843C26.2249 32.1426 21.7527 34.3232 16.7804 34.3232C7.5721 34.3232 0.11377 26.8648 0.11377 17.6565C0.11377 8.44817 7.5721 0.989838 16.7804 0.989838ZM16.7804 5.1565C23.6832 5.1565 29.2804 10.7537 29.2804 17.6565C29.2804 24.5593 23.6832 30.1565 16.7804 30.1565C9.87766 30.1565 4.28044 24.5593 4.28044 17.6565C4.28044 10.7537 9.87766 5.1565 16.7804 5.1565Z" fill="white"/>
</svg>
