<svg width="34" height="35" viewBox="0 0 34 35" fill="none" xmlns="http://www.w3.org/2000/svg">
<path d="M7.89096 6.12849L16.7803 0.989822L25.6696 6.12849L22.3363 7.93382L16.7803 4.73916L11.0856 7.93382L7.89096 6.12849ZM25.5296 12.5178L22.335 10.7125L16.7803 13.9072L11.0856 10.7125L7.89096 12.5178V16.2685L13.447 19.4632V25.9912L16.6416 27.9352L19.8363 25.9912V19.6018L25.3923 16.4072V12.5178H25.5296ZM25.5296 22.7952V19.0458L22.3363 20.9898V24.6005L25.5296 22.7952ZM27.891 24.0458L22.335 27.2405V30.9898L31.2243 25.8512V15.5738L27.891 17.6565V24.0458ZM24.6976 9.32316L27.8923 11.2672V15.0178L31.087 13.0738V9.32316L27.8923 7.37916L24.6976 9.32316ZM13.447 28.6285V32.3778L16.6416 34.3218L19.8363 32.3778V28.6285L16.6416 30.5725L13.447 28.6285ZM7.89096 22.7952L11.0856 24.6005V20.8512L7.89096 18.9072V22.7952ZM13.447 9.32316L16.6416 11.2672L19.975 9.32316L16.7803 7.37916L13.447 9.32316ZM5.52963 11.2672L8.86296 9.32316L5.52963 7.37916L2.33629 9.32316V13.0725L5.53096 15.0165V11.2672H5.52963ZM5.52963 17.6565L2.33496 15.7125V25.9898L11.2243 31.1285V27.3792L5.66829 24.1845V17.6565H5.52963Z" fill="#F0B90B"/>
</svg>
