<svg width="29" height="35" viewBox="0 0 29 35" fill="none" xmlns="http://www.w3.org/2000/svg">
<path d="M27.9716 8.97568L28.7551 7.05503C28.7551 7.05503 27.7695 5.99362 26.5564 4.78058C25.3434 3.56754 22.7909 4.27515 22.7909 4.27515L19.8847 0.98983H14.7798H9.64968L6.74344 4.30042C6.74344 4.30042 4.191 3.59281 2.97796 4.80585C1.76492 6.01889 0.779322 7.0803 0.779322 7.0803L1.56274 9.00095L0.577148 11.8314C0.577148 11.8314 3.50866 22.9004 3.83719 24.265C4.51953 26.9186 4.97442 27.9547 6.89507 29.3194C8.81571 30.684 12.2779 33.009 12.8592 33.3628C13.4152 33.7166 14.148 34.3232 14.7798 34.3232C15.4116 34.3232 16.1192 33.7166 16.7005 33.3628C17.2565 33.009 20.7439 30.6588 22.6646 29.3194C24.5852 27.98 25.0401 26.9438 25.7225 24.265C26.0763 22.9004 28.9825 11.8314 28.9825 11.8314L27.9716 8.97568Z" fill="url(#paint0_linear_137_482)"/>
<path d="M21.9825 6.39796C21.9825 6.39796 25.7227 10.9216 25.7227 11.9072C25.7227 12.8928 25.2425 13.1202 24.7623 13.6257C24.2822 14.1311 22.2099 16.3297 21.9572 16.6077C21.6792 16.8857 21.1485 17.3153 21.4518 18.0987C21.7803 18.8569 22.2605 19.8425 21.7297 20.8534C21.199 21.8389 20.2893 22.5213 19.708 22.3949C19.1268 22.2938 17.7368 21.561 17.2314 21.2324C16.726 20.9039 15.1338 19.5898 15.1338 19.0843C15.1338 18.5789 16.8018 17.6691 17.105 17.4669C17.4083 17.2648 18.7982 16.4561 18.8235 16.1528C18.8488 15.8496 18.8488 15.7485 18.4192 14.9651C18.0148 14.1816 17.2567 13.1455 17.383 12.4632C17.5094 11.7808 18.6971 11.427 19.5564 11.0985C20.4156 10.77 22.0583 10.1634 22.2605 10.0623C22.4626 9.96126 22.4121 9.88545 21.7803 9.80963C21.1485 9.75909 19.4048 9.50637 18.5961 9.73382C17.7874 9.96126 16.448 10.2898 16.3216 10.4667C16.2205 10.6436 16.1194 10.6436 16.2205 11.2754C16.3216 11.8819 16.9281 14.864 16.9787 15.3947C17.0292 15.9254 17.1556 16.2792 16.5743 16.4055C16.0183 16.5319 15.058 16.7593 14.7295 16.7593C14.401 16.7593 13.4406 16.5319 12.8847 16.4055C12.3287 16.2792 12.4298 15.9254 12.4803 15.3947C12.5309 14.864 13.1121 11.9072 13.2385 11.2754C13.3396 10.6689 13.2637 10.6436 13.1374 10.4667C13.0363 10.2898 11.6716 9.96126 10.8629 9.73382C10.0542 9.50637 8.31049 9.73382 7.6787 9.80963C7.0469 9.86018 6.99636 9.96126 7.19853 10.0623C7.40071 10.1634 9.04337 10.77 9.9026 11.0985C10.7618 11.427 11.9496 11.7808 12.076 12.4632C12.2023 13.1455 11.4694 14.1816 11.0398 14.9651C10.6355 15.7485 10.6102 15.8243 10.6355 16.1528C10.6608 16.4561 12.0507 17.2648 12.354 17.4669C12.6572 17.6691 14.3251 18.5789 14.3251 19.0843C14.3251 19.5898 12.733 20.9039 12.2276 21.2324C11.7222 21.561 10.3575 22.2686 9.75097 22.3949C9.16972 22.496 8.25994 21.8389 7.72924 20.8534C7.19853 19.8678 7.6787 18.8822 8.00723 18.0987C8.33576 17.3406 7.77978 16.911 7.50179 16.6077C7.29962 16.3045 5.25262 14.1058 4.77245 13.6257C4.29229 13.1202 3.8374 12.8675 3.8374 11.9072C3.8374 10.9469 7.57761 6.39796 7.57761 6.39796C7.57761 6.39796 10.7366 7.00448 11.1662 7.00448C11.5958 7.00448 12.5056 6.65067 13.3648 6.37268C14.2241 6.0947 14.78 6.0947 14.78 6.0947C14.78 6.0947 15.336 6.0947 16.1952 6.37268C17.0545 6.65067 17.9643 7.00448 18.3939 7.00448C18.8235 7.00448 21.9825 6.39796 21.9825 6.39796ZM19.1773 23.7091C19.4048 23.8607 19.2784 24.1387 19.0509 24.265C18.8488 24.4167 15.9931 26.6153 15.7404 26.868C15.4624 27.1207 15.058 27.4998 14.78 27.4998C14.502 27.4998 14.0977 27.0955 13.8197 26.868C13.5417 26.6153 10.7113 24.4167 10.5091 24.265C10.307 24.1134 10.1553 23.8354 10.3828 23.7091C10.6102 23.5574 11.3431 23.2036 12.3287 22.6729C13.3396 22.1422 14.5779 21.7126 14.78 21.7126C14.9822 21.7126 16.2205 22.1422 17.2314 22.6729C18.217 23.2036 18.9246 23.5827 19.1773 23.7091Z" fill="white"/>
<path d="M22.7891 4.30042L19.8828 0.98983H14.7779H9.64779L6.74155 4.30042C6.74155 4.30042 4.18911 3.59281 2.97607 4.80585C2.97607 4.80585 6.38775 4.50259 7.55025 6.39797C7.55025 6.39797 10.7092 7.00449 11.1388 7.00449C11.5684 7.00449 12.4782 6.65068 13.3375 6.3727C14.1967 6.09471 14.7527 6.09471 14.7527 6.09471C14.7527 6.09471 15.3086 6.09471 16.1679 6.3727C17.0271 6.65068 17.9369 7.00449 18.3665 7.00449C18.7961 7.00449 21.9551 6.39797 21.9551 6.39797C23.1176 4.50259 26.5293 4.80585 26.5293 4.80585C25.3415 3.59281 22.7891 4.30042 22.7891 4.30042Z" fill="url(#paint1_linear_137_482)"/>
<defs>
<linearGradient id="paint0_linear_137_482" x1="0.576955" y1="17.6497" x2="28.9602" y2="17.6497" gradientUnits="userSpaceOnUse">
<stop stop-color="#FF5500"/>
<stop offset="0.4099" stop-color="#FF5500"/>
<stop offset="0.582" stop-color="#FF2000"/>
<stop offset="1" stop-color="#FF2000"/>
</linearGradient>
<linearGradient id="paint1_linear_137_482" x1="3.49243" y1="3.99161" x2="26.5463" y2="3.99161" gradientUnits="userSpaceOnUse">
<stop stop-color="#FF452A"/>
<stop offset="1" stop-color="#FF2000"/>
</linearGradient>
</defs>
</svg>
