<svg width="34" height="35" viewBox="0 0 34 35" fill="none" xmlns="http://www.w3.org/2000/svg">
<path fill-rule="evenodd" clip-rule="evenodd" d="M7.05644 0.989822H26.5031C30.3391 0.989822 33.4471 4.33382 33.4471 8.45916V26.8538C33.4471 30.9792 30.3391 34.3232 26.5044 34.3232H7.05644C3.22177 34.3232 0.11377 30.9792 0.11377 26.8538V8.45916C0.11377 4.33382 3.22177 0.989822 7.05644 0.989822Z" fill="#0052FF"/>
<path fill-rule="evenodd" clip-rule="evenodd" d="M16.7806 5.81784C23.3192 5.81784 28.6192 11.1178 28.6192 17.6565C28.6192 24.1952 23.3192 29.4952 16.7806 29.4952C10.2419 29.4952 4.94189 24.1952 4.94189 17.6565C4.94189 11.1178 10.2419 5.81784 16.7806 5.81784Z" fill="white"/>
<path fill-rule="evenodd" clip-rule="evenodd" d="M13.8641 13.8725H19.6948C20.1748 13.8725 20.5628 14.2912 20.5628 14.8058V20.5058C20.5628 21.0218 20.1734 21.4392 19.6948 21.4392H13.8641C13.3841 21.4392 12.9961 21.0205 12.9961 20.5058V14.8058C12.9961 14.2912 13.3854 13.8725 13.8641 13.8725Z" fill="#0052FF"/>
</svg>
