<svg width="36" height="33" viewBox="0 0 36 33" fill="none" xmlns="http://www.w3.org/2000/svg">
<path d="M32.7883 1.20569L19.7817 10.8658L22.187 5.16647L32.7883 1.20569Z" fill="#E2761B" stroke="#E2761B" stroke-width="1.66667" stroke-linecap="round" stroke-linejoin="round"/>
<path d="M2.76122 1.20569L15.6632 10.9573L13.3756 5.16647L2.76122 1.20569ZM28.1076 23.5978L24.6436 28.905L32.0553 30.9442L34.1861 23.7155L28.1076 23.5978ZM1.38867 23.7155L3.50632 30.9442L10.9181 28.905L7.45403 23.5978L1.38867 23.7155Z" fill="#E4761B" stroke="#E4761B" stroke-width="1.66667" stroke-linecap="round" stroke-linejoin="round"/>
<path d="M10.4999 14.6301L8.43457 17.7543L15.794 18.0811L15.5326 10.1726L10.4999 14.6301ZM25.0489 14.6301L19.9509 10.0811L19.781 18.0811L27.1274 17.7543L25.0489 14.6301ZM10.9182 28.9046L15.3365 26.7478L11.5195 23.7674L10.9182 28.9046ZM20.2123 26.7478L24.6437 28.9046L24.0293 23.7674L20.2123 26.7478Z" fill="#E4761B" stroke="#E4761B" stroke-width="1.66667" stroke-linecap="round" stroke-linejoin="round"/>
<path d="M24.6444 28.905L20.2131 26.7481L20.566 29.637L20.5268 30.8527L24.6444 28.905ZM10.9189 28.905L15.0366 30.8527L15.0104 29.637L15.3372 26.7481L10.9189 28.905Z" fill="#D7C1B3" stroke="#D7C1B3" stroke-width="1.66667" stroke-linecap="round" stroke-linejoin="round"/>
<path d="M15.0998 21.8595L11.4136 20.7745L14.0149 19.585L15.0998 21.8595ZM20.4463 21.8595L21.5312 19.585L24.1456 20.7745L20.4463 21.8595Z" fill="#233447" stroke="#233447" stroke-width="1.66667" stroke-linecap="round" stroke-linejoin="round"/>
<path d="M10.9191 28.9051L11.5466 23.5979L7.45508 23.7155L10.9191 28.9051ZM24.0172 23.5979L24.6446 28.9051L28.1087 23.7155L24.0172 23.5979ZM27.1283 17.7548L19.7819 18.0816L20.4616 21.8593L21.5466 19.5848L24.161 20.7744L27.1283 17.7548ZM11.4159 20.7744L14.0302 19.5848L15.1021 21.8593L15.7949 18.0816L8.43547 17.7548L11.4159 20.7744Z" fill="#CD6116" stroke="#CD6116" stroke-width="1.66667" stroke-linecap="round" stroke-linejoin="round"/>
<path d="M8.43457 17.7548L11.5195 23.7678L11.415 20.7744L8.43457 17.7548ZM24.1601 20.7744L24.0293 23.7678L27.1274 17.7548L24.1601 20.7744ZM15.794 18.0816L15.1012 21.8593L15.964 26.3169L16.1601 20.4476L15.794 18.0816ZM19.781 18.0816L19.428 20.4345L19.5849 26.3169L20.4607 21.8593L19.781 18.0816Z" fill="#E4751F" stroke="#E4751F" stroke-width="1.66667" stroke-linecap="round" stroke-linejoin="round"/>
<path d="M20.4593 21.8596L19.5835 26.3171L20.211 26.7485L24.028 23.7681L24.1587 20.7746L20.4593 21.8596ZM11.4136 20.7746L11.5181 23.7681L15.3351 26.7485L15.9626 26.3171L15.0998 21.8596L11.4136 20.7746Z" fill="#F6851B" stroke="#F6851B" stroke-width="1.66667" stroke-linecap="round" stroke-linejoin="round"/>
<path d="M20.5268 30.8524L20.566 29.6368L20.2392 29.3492H15.3111L15.0104 29.6368L15.0366 30.8524L10.9189 28.9047L12.3569 30.0812L15.2719 32.1073H20.2784L23.2065 30.0812L24.6444 28.9047L20.5268 30.8524Z" fill="#C0AD9E" stroke="#C0AD9E" stroke-width="1.66667" stroke-linecap="round" stroke-linejoin="round"/>
<path d="M20.2124 26.7484L19.5849 26.317H15.964L15.3366 26.7484L15.0098 29.6373L15.3104 29.3497H20.2385L20.5653 29.6373L20.2124 26.7484Z" fill="#161616" stroke="#161616" stroke-width="1.66667" stroke-linecap="round" stroke-linejoin="round"/>
<path d="M33.336 11.4933L34.4471 6.15994L32.787 1.20569L20.2118 10.539L25.0484 14.6305L31.885 16.6305L33.4014 14.8658L32.7478 14.3952L33.7935 13.441L32.9831 12.8135L34.0288 12.0161L33.336 11.4933ZM1.11377 6.15994L2.22488 11.4933L1.519 12.0161L2.56475 12.8135L1.76736 13.441L2.81312 14.3952L2.15952 14.8658L3.66279 16.6305L10.4994 14.6305L15.336 10.539L2.76083 1.20569L1.11377 6.15994Z" fill="#763D16" stroke="#763D16" stroke-width="1.66667" stroke-linecap="round" stroke-linejoin="round"/>
<path d="M31.8854 16.6301L25.0488 14.6301L27.1272 17.7543L24.0292 23.7673L28.1076 23.715H34.1861L31.8854 16.6301ZM10.4998 14.6301L3.66318 16.6301L1.38867 23.715H7.45403L11.5194 23.7673L8.43442 17.7543L10.4998 14.6301ZM19.7808 18.081L20.2122 10.5386L22.1991 5.16602H13.3756L15.3364 10.5386L15.7939 18.081L15.9508 20.4601L15.9638 26.3163H19.5847L19.6109 20.4601L19.7808 18.081Z" fill="#F6851B" stroke="#F6851B" stroke-width="1.66667" stroke-linecap="round" stroke-linejoin="round"/>
</svg>
