<svg width="34" height="35" viewBox="0 0 34 35" fill="none" xmlns="http://www.w3.org/2000/svg">
<path d="M16.78 0.990604C7.57554 0.990604 0.11377 8.45238 0.11377 17.6569C0.11377 26.595 7.15045 33.8898 15.9863 34.3037C16.25 34.3161 16.5141 34.3232 16.7803 34.3232C21.0473 34.3232 24.9388 32.7187 27.8874 30.0818C25.9338 31.3775 23.6497 32.1229 21.2088 32.1229C17.2398 32.1229 13.6852 30.154 11.2946 27.049C9.45172 24.8737 8.2581 21.658 8.17679 18.0492V17.2643C8.25805 13.6556 9.45166 10.4393 11.2941 8.26443C13.6851 5.15949 17.2396 3.19054 21.2083 3.19054C23.6498 3.19054 25.9343 3.93601 27.8881 5.23245C24.9539 2.60763 21.086 1.00645 16.8427 0.990692C16.8216 0.990692 16.8008 0.989864 16.7797 0.989864L16.78 0.990604Z" fill="url(#paint0_linear_137_109)"/>
<path d="M11.2939 8.26535C12.8234 6.45979 14.7986 5.37101 16.9566 5.37101C21.8086 5.37101 25.7412 10.8719 25.7412 17.6576C25.7412 24.4432 21.8083 29.9441 16.9566 29.9441C14.7986 29.9441 12.8234 28.8558 11.2944 27.0502C13.6849 30.1551 17.2392 32.1241 21.2085 32.1241C23.6496 32.1241 25.9337 31.3786 27.8871 30.083C31.2985 27.0311 33.4465 22.5954 33.4465 17.6577C33.4465 12.7206 31.2989 8.28505 27.8884 5.23354C25.9343 3.9371 23.6499 3.19163 21.2086 3.19163C17.2396 3.19163 13.6846 5.1604 11.2939 8.26535Z" fill="url(#paint1_linear_137_109)"/>
<defs>
<linearGradient id="paint0_linear_137_109" x1="14.0013" y1="1.53388" x2="14.0013" y2="33.8386" gradientUnits="userSpaceOnUse">
<stop stop-color="#FF1B2D"/>
<stop offset="0.3" stop-color="#FF1B2D"/>
<stop offset="0.614" stop-color="#FF1B2D"/>
<stop offset="1" stop-color="#A70014"/>
</linearGradient>
<linearGradient id="paint1_linear_137_109" x1="22.3699" y1="3.43821" x2="22.3699" y2="32.01" gradientUnits="userSpaceOnUse">
<stop stop-color="#9C0000"/>
<stop offset="0.7" stop-color="#FF4B4B"/>
<stop offset="1" stop-color="#FF4B4B"/>
</linearGradient>
</defs>
</svg>
