<svg width="27" height="31" viewBox="0 0 27 31" fill="none" xmlns="http://www.w3.org/2000/svg">
<path fill-rule="evenodd" clip-rule="evenodd" d="M12.7585 1.0144C13.3454 0.537197 14.1989 0.537191 14.7858 1.01439C18.7695 4.25347 23.3124 4.2288 25.0811 4.2192C25.1691 4.21872 25.2502 4.21828 25.324 4.21828C25.7475 4.21828 26.1533 4.38368 26.4505 4.67741C26.7477 4.97115 26.9115 5.36867 26.9051 5.78093C26.8213 11.1903 26.5986 15.0561 26.1606 17.8923C25.7228 20.7267 25.0497 22.6829 23.9566 24.1618C22.8554 25.6517 21.4406 26.4955 19.9517 27.2966C19.6931 27.4357 19.4298 27.5747 19.1605 27.7169C17.8553 28.4062 16.4105 29.1692 14.6939 30.3679C14.1429 30.7527 13.4014 30.7527 12.8504 30.3679C11.1355 29.1703 9.69263 28.4077 8.38952 27.719C8.11893 27.5759 7.85437 27.4361 7.59465 27.2962C6.10694 26.495 4.69406 25.6509 3.59492 24.1604C2.50428 22.6814 1.83355 20.7253 1.39743 17.8915C0.96098 15.0557 0.739288 11.1901 0.655454 5.78095C0.649064 5.36869 0.812816 4.97116 1.11002 4.67742C1.40723 4.38368 1.81305 4.21828 2.23658 4.21828C2.30957 4.21828 2.38987 4.21872 2.47704 4.2192C4.23158 4.22882 8.77465 4.25371 12.7585 1.0144ZM13.7722 4.13976C10.0553 6.71982 6.12751 7.20192 3.84656 7.28471C3.9466 11.8399 4.16155 15.073 4.52512 17.4353C4.92898 20.0594 5.49605 21.459 6.16404 22.3648C6.82353 23.2592 7.69008 23.829 9.12561 24.6021C9.3588 24.7277 9.60507 24.8577 9.86392 24.9944C10.9553 25.5705 12.2704 26.2648 13.7722 27.2441C15.2761 26.2635 16.5933 25.5688 17.6866 24.9921C17.9443 24.8562 18.1896 24.7268 18.422 24.6018C19.8594 23.8284 20.7281 23.2583 21.3895 22.3635C22.0591 21.4576 22.6279 20.0581 23.0331 17.4345C23.3979 15.0725 23.6138 11.8399 23.714 7.28502C21.4275 7.20312 17.4939 6.723 13.7722 4.13976Z" fill="white"/>
</svg>
