<svg width="34" height="21" viewBox="0 0 34 21" fill="none" xmlns="http://www.w3.org/2000/svg">
<path d="M0.115869 11.0226C0.131161 10.7877 0.229173 10.5562 0.409208 10.3761L1.83281 8.95254C2.22625 8.5591 2.86297 8.5591 3.25641 8.95254L9.66261 15.3587L16.0688 8.95254C16.1842 8.83715 16.3204 8.75652 16.465 8.70925C16.8147 8.59317 17.2144 8.67449 17.4924 8.95254L23.8986 15.3587L30.3048 8.95254C30.5405 8.7169 30.8637 8.62167 31.1695 8.66893C31.3746 8.70021 31.5713 8.79544 31.7284 8.95254L33.152 10.3761C33.5455 10.7696 33.5455 11.4063 33.152 11.7997L24.6104 20.3413C24.217 20.7348 23.5803 20.7348 23.1868 20.3413L16.7806 13.9351L10.3744 20.3413C9.98098 20.7348 9.34425 20.7348 8.95081 20.3413L0.409208 11.7997C0.196502 11.587 0.0977955 11.302 0.115869 11.0226Z" fill="#5797FF"/>
<path d="M6.10361 6.10534C5.71017 5.7119 5.70878 5.07101 6.12585 4.70398C12.2019 -0.665799 21.3607 -0.665799 27.4361 4.70329C27.8518 5.0717 27.8511 5.7119 27.4576 6.10534L26.034 7.52894C25.6406 7.92238 25.0052 7.91821 24.5812 7.55814C20.0894 3.75028 13.4712 3.75098 8.98001 7.55814C8.55599 7.91821 7.92065 7.92238 7.52721 7.52894L6.10361 6.10534Z" fill="#5797FF"/>
</svg>
