<svg width="82" height="12" viewBox="0 0 82 12" fill="none" xmlns="http://www.w3.org/2000/svg">
<path d="M73.1927 6.1474C73.1927 7.62016 74.3866 8.81407 75.8594 8.81407C77.3321 8.81407 78.526 7.62016 78.526 6.1474C78.526 4.67464 77.3321 3.48073 75.8594 3.48073C74.3866 3.48073 73.1927 4.67464 73.1927 6.1474ZM5.54688 6.6474C5.82302 6.6474 6.04688 6.42354 6.04688 6.1474C6.04688 5.87126 5.82302 5.6474 5.54688 5.6474V6.6474ZM14.9219 5.6474C14.6457 5.6474 14.4219 5.87126 14.4219 6.1474C14.4219 6.42354 14.6457 6.6474 14.9219 6.6474V5.6474ZM24.2969 6.6474C24.573 6.6474 24.7969 6.42354 24.7969 6.1474C24.7969 5.87126 24.573 5.6474 24.2969 5.6474V6.6474ZM33.6719 5.6474C33.3957 5.6474 33.1719 5.87126 33.1719 6.1474C33.1719 6.42354 33.3957 6.6474 33.6719 6.6474V5.6474ZM43.0469 6.6474C43.323 6.6474 43.5469 6.42354 43.5469 6.1474C43.5469 5.87126 43.323 5.6474 43.0469 5.6474V6.6474ZM52.4219 5.6474C52.1457 5.6474 51.9219 5.87126 51.9219 6.1474C51.9219 6.42354 52.1457 6.6474 52.4219 6.6474V5.6474ZM61.7969 6.6474C62.073 6.6474 62.2969 6.42354 62.2969 6.1474C62.2969 5.87126 62.073 5.6474 61.7969 5.6474V6.6474ZM71.1719 5.6474C70.8957 5.6474 70.6719 5.87126 70.6719 6.1474C70.6719 6.42354 70.8957 6.6474 71.1719 6.6474V5.6474ZM0.859375 6.6474H5.54688V5.6474H0.859375V6.6474ZM14.9219 6.6474H24.2969V5.6474H14.9219V6.6474ZM33.6719 6.6474H43.0469V5.6474H33.6719V6.6474ZM52.4219 6.6474H61.7969V5.6474H52.4219V6.6474ZM71.1719 6.6474H75.8594V5.6474H71.1719V6.6474ZM70.526 6.1474C70.526 9.09292 72.9139 11.4807 75.8594 11.4807C78.8049 11.4807 81.1927 9.09292 81.1927 6.1474C81.1927 3.20188 78.8049 0.814066 75.8594 0.814066C72.9139 0.814066 70.526 3.20188 70.526 6.1474ZM5.54688 7.1474C6.09916 7.1474 6.54688 6.69968 6.54688 6.1474C6.54688 5.59512 6.09916 5.1474 5.54688 5.1474V7.1474ZM14.9219 5.1474C14.3696 5.1474 13.9219 5.59512 13.9219 6.1474C13.9219 6.69968 14.3696 7.1474 14.9219 7.1474V5.1474ZM24.2969 7.1474C24.8492 7.1474 25.2969 6.69968 25.2969 6.1474C25.2969 5.59512 24.8492 5.1474 24.2969 5.1474V7.1474ZM33.6719 5.1474C33.1196 5.1474 32.6719 5.59512 32.6719 6.1474C32.6719 6.69968 33.1196 7.1474 33.6719 7.1474V5.1474ZM43.0469 7.1474C43.5992 7.1474 44.0469 6.69968 44.0469 6.1474C44.0469 5.59512 43.5992 5.1474 43.0469 5.1474V7.1474ZM52.4219 5.1474C51.8696 5.1474 51.4219 5.59512 51.4219 6.1474C51.4219 6.69968 51.8696 7.1474 52.4219 7.1474V5.1474ZM61.7969 7.1474C62.3492 7.1474 62.7969 6.69968 62.7969 6.1474C62.7969 5.59512 62.3492 5.1474 61.7969 5.1474V7.1474ZM71.1719 5.1474C70.6196 5.1474 70.1719 5.59512 70.1719 6.1474C70.1719 6.69968 70.6196 7.1474 71.1719 7.1474V5.1474ZM0.859375 7.1474H5.54688V5.1474H0.859375V7.1474ZM14.9219 7.1474H24.2969V5.1474H14.9219V7.1474ZM33.6719 7.1474H43.0469V5.1474H33.6719V7.1474ZM52.4219 7.1474H61.7969V5.1474H52.4219V7.1474ZM71.1719 7.1474H75.8594V5.1474H71.1719V7.1474Z" fill="#29323D"/>
</svg>
