<svg width="17" height="17" viewBox="0 0 17 17" fill="none" xmlns="http://www.w3.org/2000/svg">
<g clip-path="url(#clip0_130_23497)">
<path fill-rule="evenodd" clip-rule="evenodd" d="M2.42371 2.8521L3.21286 7.38969H8.08204C8.49625 7.38969 8.83204 7.72547 8.83204 8.13969C8.83204 8.5539 8.49625 8.88969 8.08204 8.88969H3.21286L2.42371 13.4272L14.7614 8.13969L2.42371 2.8521ZM1.82078 8.13969L0.895706 2.82052C0.820921 2.39051 0.960063 1.951 1.26869 1.64237C1.65648 1.25459 2.24129 1.14196 2.74536 1.35799L16.1477 7.10185C16.5628 7.27978 16.832 7.688 16.832 8.13969C16.832 8.59137 16.5628 8.9996 16.1477 9.17753L2.74536 14.9214C2.24129 15.1375 1.65648 15.0248 1.26869 14.6371C0.960063 14.3284 0.820921 13.8889 0.895706 13.4588L1.82078 8.13969Z" fill="#29323D"/>
</g>
<defs>
<clipPath id="clip0_130_23497">
<rect width="16" height="16" fill="white" transform="translate(0.832031 0.139648)"/>
</clipPath>
</defs>
</svg>
