<svg width="25" height="25" viewBox="0 0 25 25" fill="none" xmlns="http://www.w3.org/2000/svg">
<path d="M17.1123 12.9832C17.1123 12.4309 17.56 11.9832 18.1123 11.9832C18.6646 11.9832 19.1123 12.4309 19.1123 12.9832C19.1123 13.5354 18.6646 13.9832 18.1123 13.9832C17.56 13.9832 17.1123 13.5354 17.1123 12.9832Z" stroke="#7D8FA9" stroke-width="2" stroke-linecap="round" stroke-linejoin="round"/>
<path d="M11.1123 12.9832C11.1123 12.4309 11.56 11.9832 12.1123 11.9832C12.6646 11.9832 13.1123 12.4309 13.1123 12.9832C13.1123 13.5354 12.6646 13.9832 12.1123 13.9832C11.56 13.9832 11.1123 13.5354 11.1123 12.9832Z" stroke="#7D8FA9" stroke-width="2" stroke-linecap="round" stroke-linejoin="round"/>
<path d="M5.1123 12.9832C5.1123 12.4309 5.56002 11.9832 6.1123 11.9832C6.66459 11.9832 7.1123 12.4309 7.1123 12.9832C7.1123 13.5354 6.66459 13.9832 6.1123 13.9832C5.56002 13.9832 5.1123 13.5354 5.1123 12.9832Z" stroke="#7D8FA9" stroke-width="2" stroke-linecap="round" stroke-linejoin="round"/>
</svg>
