<svg width="21" height="21" viewBox="0 0 21 21" fill="none" xmlns="http://www.w3.org/2000/svg">
<g clip-path="url(#clip0_34_870)">
<path d="M12.8962 9.64606L14.3644 7.15483L18.3217 13.3186L18.3236 14.5014L18.3107 6.36169C18.3013 6.16273 18.1957 5.9807 18.0271 5.87336L10.9024 1.77514C10.7358 1.69324 10.5244 1.69411 10.3581 1.77768C10.3356 1.78897 10.3145 1.8012 10.2943 1.81454L10.2695 1.83017L3.35381 5.83775L3.32695 5.84991C3.29245 5.86579 3.25759 5.88596 3.22483 5.90941C3.09373 6.00347 3.00663 6.1425 2.97846 6.29847C2.97424 6.32211 2.97114 6.34618 2.96965 6.37044L2.98051 13.0035L6.66659 7.29027C7.13066 6.53268 8.14181 6.28867 9.08044 6.30195L10.1821 6.33105L3.69107 16.7408L4.45623 17.1814L11.0251 6.34159L13.9285 6.33105L7.37659 17.4444L10.1069 19.0148L10.4331 19.2024C10.5711 19.2585 10.7338 19.2613 10.873 19.2111L18.0978 15.0242L16.7165 15.8246L12.8962 9.64606ZM13.4564 17.7139L10.6987 13.3857L12.3821 10.5292L16.0037 16.2376L13.4564 17.7139Z" fill="#2D374B"/>
<path d="M10.6988 13.3858L13.4565 17.7139L16.0039 16.2377L12.3822 10.5293L10.6988 13.3858Z" fill="#28A0F0"/>
<path d="M18.3237 14.5015L18.3218 13.3187L14.3645 7.15494L12.8963 9.64616L16.7166 15.8247L18.0979 15.0243C18.2334 14.9143 18.3153 14.7528 18.3239 14.5785L18.3237 14.5015Z" fill="#28A0F0"/>
<path d="M1.74034 15.6167L3.69093 16.7407L10.182 6.33091L9.08031 6.30181C8.14168 6.28853 7.13058 6.53254 6.66645 7.29013L2.98037 13.0034L1.74028 14.9087V15.6167H1.74034Z" fill="white"/>
<path d="M13.9284 6.33102L11.025 6.34157L4.45615 17.1814L6.75212 18.5033L7.37651 17.4444L13.9284 6.33102Z" fill="white"/>
<path d="M19.547 6.31608C19.5227 5.70888 19.194 5.15299 18.679 4.82938L11.4609 0.678478C10.9515 0.421936 10.3151 0.421625 9.80483 0.678292C9.74452 0.708692 2.78537 4.74475 2.78537 4.74475C2.68908 4.79091 2.59633 4.84594 2.50904 4.90835C2.04931 5.23786 1.76907 5.74983 1.74028 6.31236V14.9089L2.98037 13.0036L2.96951 6.37049C2.971 6.34623 2.97404 6.32241 2.97832 6.29883C3.0063 6.14274 3.09347 6.00351 3.22469 5.90946C3.25745 5.88601 10.3354 1.78902 10.3579 1.77773C10.5243 1.69416 10.7357 1.69329 10.9023 1.77519L18.027 5.87341C18.1955 5.98074 18.3012 6.16278 18.3106 6.36174V14.5785C18.3019 14.7528 18.2331 14.9142 18.0976 15.0242L16.7163 15.8246L16.0036 16.2377L13.4562 17.7139L10.8728 19.2111C10.7336 19.2614 10.5709 19.2586 10.4329 19.2024L7.37639 17.4444L6.75201 18.5034L9.49884 20.0849C9.58967 20.1365 9.67063 20.1823 9.73702 20.2196C9.83988 20.2773 9.90993 20.3158 9.93468 20.3278C10.1299 20.4226 10.4108 20.4778 10.6639 20.4778C10.896 20.4778 11.1223 20.4352 11.3365 20.3513L18.8401 16.0057C19.2708 15.6721 19.5242 15.1689 19.547 14.6237V6.31608Z" fill="#96BEDC"/>
</g>
<defs>
<clipPath id="clip0_34_870">
<rect width="20" height="20" fill="white" transform="translate(0.49028 0.485931)"/>
</clipPath>
</defs>
</svg>
