<svg width="61" height="61" viewBox="0 0 61 61" fill="none" xmlns="http://www.w3.org/2000/svg">
<g clip-path="url(#clip0_194_2175)">
<path d="M55.5 60.9966L42.375 48.4966L43.95 53.4966H11.75C10.0924 53.4966 8.50269 52.8381 7.33058 51.666C6.15848 50.4939 5.5 48.9042 5.5 47.2466V9.74658C5.5 8.08898 6.15848 6.49927 7.33058 5.32716C8.50269 4.15506 10.0924 3.49658 11.75 3.49658H49.25C50.9076 3.49658 52.4973 4.15506 53.6694 5.32716C54.8415 6.49927 55.5 8.08898 55.5 9.74658V60.9966ZM30.5 17.9966C23.8 17.9966 19.1 20.8716 19.1 20.8716C21.675 18.5716 26.175 17.2466 26.175 17.2466L25.75 16.8216C21.525 16.8966 17.7 19.8216 17.7 19.8216C13.4 28.7966 13.675 36.5466 13.675 36.5466C17.175 41.0716 22.375 40.7466 22.375 40.7466L24.15 38.4966C21.025 37.8216 19.05 35.0466 19.05 35.0466C19.05 35.0466 23.75 38.2466 30.5 38.2466C37.25 38.2466 41.95 35.0466 41.95 35.0466C41.95 35.0466 39.975 37.8216 36.85 38.4966L38.625 40.7466C38.625 40.7466 43.825 41.0716 47.325 36.5466C47.325 36.5466 47.6 28.7966 43.3 19.8216C43.3 19.8216 39.475 16.8966 35.25 16.8216L34.825 17.2466C34.825 17.2466 39.325 18.5716 41.9 20.8716C41.9 20.8716 37.2 17.9966 30.5 17.9966ZM25.325 27.4716C26.95 27.4716 28.275 28.8966 28.25 30.6466C28.25 32.3716 26.95 33.8216 25.325 33.8216C23.725 33.8216 22.425 32.3716 22.425 30.6466C22.425 28.8966 23.7 27.4716 25.325 27.4716ZM35.75 27.4716C37.375 27.4716 38.675 28.8966 38.675 30.6466C38.675 32.3716 37.375 33.8216 35.75 33.8216C34.15 33.8216 32.85 32.3716 32.85 30.6466C32.85 28.8966 34.125 27.4716 35.75 27.4716Z" fill="white"/>
</g>
<defs>
<clipPath id="clip0_194_2175">
<rect width="60" height="60" fill="white" transform="translate(0.5 0.996582)"/>
</clipPath>
</defs>
</svg>
