<svg width="20" height="21" viewBox="0 0 20 21" fill="none" xmlns="http://www.w3.org/2000/svg">
<g clip-path="url(#clip0_133_30699)">
<path d="M18.3334 20.1249L13.9584 15.9583L14.4834 17.6249H3.75002C3.19749 17.6249 2.66758 17.4054 2.27688 17.0147C1.88618 16.624 1.66669 16.0941 1.66669 15.5416V3.04159C1.66669 2.48905 1.88618 1.95915 2.27688 1.56845C2.66758 1.17775 3.19749 0.958252 3.75002 0.958252H16.25C16.8026 0.958252 17.3325 1.17775 17.7232 1.56845C18.1139 1.95915 18.3334 2.48905 18.3334 3.04159V20.1249ZM10 5.79159C7.76669 5.79159 6.20002 6.74992 6.20002 6.74992C7.05835 5.98325 8.55835 5.54158 8.55835 5.54158L8.41669 5.39992C7.00835 5.42492 5.73335 6.39992 5.73335 6.39992C4.30002 9.39159 4.39169 11.9749 4.39169 11.9749C5.55835 13.4833 7.29169 13.3749 7.29169 13.3749L7.88335 12.6249C6.84169 12.3999 6.18335 11.4749 6.18335 11.4749C6.18335 11.4749 7.75002 12.5416 10 12.5416C12.25 12.5416 13.8167 11.4749 13.8167 11.4749C13.8167 11.4749 13.1584 12.3999 12.1167 12.6249L12.7084 13.3749C12.7084 13.3749 14.4417 13.4833 15.6084 11.9749C15.6084 11.9749 15.7 9.39159 14.2667 6.39992C14.2667 6.39992 12.9917 5.42492 11.5834 5.39992L11.4417 5.54158C11.4417 5.54158 12.9417 5.98325 13.8 6.74992C13.8 6.74992 12.2334 5.79159 10 5.79159ZM8.27502 8.94992C8.81669 8.94992 9.25835 9.42492 9.25002 10.0083C9.25002 10.5833 8.81669 11.0666 8.27502 11.0666C7.74169 11.0666 7.30835 10.5833 7.30835 10.0083C7.30835 9.42492 7.73335 8.94992 8.27502 8.94992ZM11.75 8.94992C12.2917 8.94992 12.725 9.42492 12.725 10.0083C12.725 10.5833 12.2917 11.0666 11.75 11.0666C11.2167 11.0666 10.7834 10.5833 10.7834 10.0083C10.7834 9.42492 11.2084 8.94992 11.75 8.94992Z" fill="white"/>
</g>
<defs>
<clipPath id="clip0_133_30699">
<rect width="20" height="20" fill="white" transform="translate(0 0.125)"/>
</clipPath>
</defs>
</svg>
