<svg width="61" height="61" viewBox="0 0 61 61" fill="none" xmlns="http://www.w3.org/2000/svg">
<path d="M30.5 5.99658C27.217 5.99658 23.9661 6.64323 20.9329 7.89959C17.8998 9.15596 15.1438 10.9974 12.8223 13.3189C8.13392 18.0073 5.5 24.3662 5.5 30.9966C5.5 42.0466 12.675 51.4216 22.6 54.7466C23.85 54.9466 24.25 54.1716 24.25 53.4966V49.2716C17.325 50.7716 15.85 45.9216 15.85 45.9216C14.7 43.0216 13.075 42.2466 13.075 42.2466C10.8 40.6966 13.25 40.7466 13.25 40.7466C15.75 40.9216 17.075 43.3216 17.075 43.3216C19.25 47.1216 22.925 45.9966 24.35 45.3966C24.575 43.7716 25.225 42.6716 25.925 42.0466C20.375 41.4216 14.55 39.2716 14.55 29.7466C14.55 26.9716 15.5 24.7466 17.125 22.9716C16.875 22.3466 16 19.7466 17.375 16.3716C17.375 16.3716 19.475 15.6966 24.25 18.9216C26.225 18.3716 28.375 18.0966 30.5 18.0966C32.625 18.0966 34.775 18.3716 36.75 18.9216C41.525 15.6966 43.625 16.3716 43.625 16.3716C45 19.7466 44.125 22.3466 43.875 22.9716C45.5 24.7466 46.45 26.9716 46.45 29.7466C46.45 39.2966 40.6 41.3966 35.025 42.0216C35.925 42.7966 36.75 44.3216 36.75 46.6466V53.4966C36.75 54.1716 37.15 54.9716 38.425 54.7466C48.35 51.3966 55.5 42.0466 55.5 30.9966C55.5 27.7135 54.8534 24.4626 53.597 21.4295C52.3406 18.3964 50.4991 15.6404 48.1777 13.3189C45.8562 10.9974 43.1002 9.15596 40.0671 7.89959C37.0339 6.64323 33.783 5.99658 30.5 5.99658V5.99658Z" fill="white"/>
</svg>
