<svg width="20" height="21" viewBox="0 0 20 21" fill="none" xmlns="http://www.w3.org/2000/svg">
<path d="M10 1.79175C8.90567 1.79175 7.82204 2.0073 6.81099 2.42609C5.79994 2.84487 4.88129 3.4587 4.10746 4.23252C2.54466 5.79533 1.66669 7.91494 1.66669 10.1251C1.66669 13.8084 4.05835 16.9334 7.36669 18.0417C7.78335 18.1084 7.91669 17.8501 7.91669 17.6251V16.2167C5.60835 16.7167 5.11669 15.1001 5.11669 15.1001C4.73335 14.1334 4.19169 13.8751 4.19169 13.8751C3.43335 13.3584 4.25002 13.3751 4.25002 13.3751C5.08335 13.4334 5.52502 14.2334 5.52502 14.2334C6.25002 15.5001 7.47502 15.1251 7.95002 14.9251C8.02502 14.3834 8.24169 14.0167 8.47502 13.8084C6.62502 13.6001 4.68335 12.8834 4.68335 9.70842C4.68335 8.78341 5.00002 8.04175 5.54169 7.45008C5.45835 7.24175 5.16669 6.37508 5.62502 5.25008C5.62502 5.25008 6.32502 5.02508 7.91669 6.10008C8.57502 5.91675 9.29169 5.82508 10 5.82508C10.7084 5.82508 11.425 5.91675 12.0834 6.10008C13.675 5.02508 14.375 5.25008 14.375 5.25008C14.8334 6.37508 14.5417 7.24175 14.4584 7.45008C15 8.04175 15.3167 8.78341 15.3167 9.70842C15.3167 12.8917 13.3667 13.5917 11.5084 13.8001C11.8084 14.0584 12.0834 14.5667 12.0834 15.3417V17.6251C12.0834 17.8501 12.2167 18.1167 12.6417 18.0417C15.95 16.9251 18.3334 13.8084 18.3334 10.1251C18.3334 9.03073 18.1178 7.9471 17.699 6.93605C17.2802 5.92501 16.6664 5.00635 15.8926 4.23252C15.1188 3.4587 14.2001 2.84487 13.189 2.42609C12.178 2.0073 11.0944 1.79175 10 1.79175Z" fill="white"/>
</svg>
