<svg width="20" height="21" viewBox="0 0 20 21" fill="none" xmlns="http://www.w3.org/2000/svg">
<path d="M12.0834 12.9667C12.15 13.0417 12.15 13.2001 12.0834 13.2917C11.475 13.8751 10.3417 13.9251 10 13.9251C9.67502 13.9251 8.54169 13.8751 7.95002 13.2917C7.86669 13.2001 7.86669 13.0417 7.95002 12.9667C8.04169 12.8834 8.18335 12.8834 8.26669 12.9667C8.65002 13.3501 9.44169 13.4584 10 13.4584C10.575 13.4584 11.3834 13.3501 11.75 12.9667C11.8417 12.8834 11.9834 12.8834 12.0834 12.9667ZM8.95835 10.9917C8.95835 10.5167 8.56669 10.1251 8.09169 10.1251C7.61669 10.1251 7.22502 10.5167 7.22502 10.9917C7.22502 11.4667 7.61669 11.8667 8.09169 11.8584C8.56669 11.8584 8.95835 11.4667 8.95835 10.9917ZM11.9084 10.1251C11.4334 10.1251 11.0417 10.5417 11.0417 11.0001C11.0417 11.4584 11.4334 11.8667 11.9084 11.8667C12.3834 11.8667 12.775 11.4667 12.775 11.0001C12.775 10.5417 12.3834 10.1251 11.9084 10.1251ZM18.3334 10.1251C18.3334 14.7084 14.5834 18.4584 10 18.4584C5.41669 18.4584 1.66669 14.7084 1.66669 10.1251C1.66669 5.54175 5.41669 1.79175 10 1.79175C14.5834 1.79175 18.3334 5.54175 18.3334 10.1251ZM15.5584 10.1251C15.5584 9.45008 15 8.90841 14.35 8.90841C14.0167 8.90841 13.7167 9.04175 13.5 9.25008C12.6667 8.65008 11.525 8.26675 10.25 8.21675L10.8084 5.60841L12.6167 6.00008C12.6334 6.45841 13.0167 6.82508 13.4834 6.82508C13.9584 6.82508 14.35 6.43341 14.35 5.95841C14.35 5.48341 13.9584 5.09175 13.4834 5.09175C13.1417 5.09175 12.8417 5.29175 12.7084 5.58341L10.6834 5.15008C10.625 5.12508 10.5667 5.15008 10.525 5.18341C10.475 5.21675 10.45 5.26675 10.4417 5.32508L9.82502 8.22508C8.53335 8.26675 7.36669 8.65008 6.51669 9.25841C6.30002 9.05008 6.00002 8.92508 5.67502 8.92508C5.00002 8.92508 4.45835 9.46675 4.45835 10.1251C4.45835 10.6334 4.75835 11.0501 5.17502 11.2417C5.15835 11.3751 5.15002 11.4751 5.15002 11.6084C5.15002 13.4584 7.32502 15.0001 10 15.0001C12.6917 15.0001 14.875 13.4834 14.875 11.6084C14.875 11.4917 14.8667 11.3751 14.8417 11.2417C15.2584 11.0501 15.5584 10.6251 15.5584 10.1251Z" fill="white"/>
</svg>
