<svg width="61" height="61" viewBox="0 0 61 61" fill="none" xmlns="http://www.w3.org/2000/svg">
<path d="M36.75 39.5216C36.95 39.7466 36.95 40.2216 36.75 40.4966C34.925 42.2466 31.525 42.3966 30.5 42.3966C29.525 42.3966 26.125 42.2466 24.35 40.4966C24.1 40.2216 24.1 39.7466 24.35 39.5216C24.625 39.2716 25.05 39.2716 25.3 39.5216C26.45 40.6716 28.825 40.9966 30.5 40.9966C32.225 40.9966 34.65 40.6716 35.75 39.5216C36.025 39.2716 36.45 39.2716 36.75 39.5216ZM27.375 33.5966C27.375 32.1716 26.2 30.9966 24.775 30.9966C23.35 30.9966 22.175 32.1716 22.175 33.5966C22.175 35.0216 23.35 36.2216 24.775 36.1966C26.2 36.1966 27.375 35.0216 27.375 33.5966ZM36.225 30.9966C34.8 30.9966 33.625 32.2466 33.625 33.6216C33.625 34.9966 34.8 36.2216 36.225 36.2216C37.65 36.2216 38.825 35.0216 38.825 33.6216C38.825 32.2466 37.65 30.9966 36.225 30.9966ZM55.5 30.9966C55.5 44.7466 44.25 55.9966 30.5 55.9966C16.75 55.9966 5.5 44.7466 5.5 30.9966C5.5 17.2466 16.75 5.99658 30.5 5.99658C44.25 5.99658 55.5 17.2466 55.5 30.9966ZM47.175 30.9966C47.175 28.9716 45.5 27.3466 43.55 27.3466C42.55 27.3466 41.65 27.7466 41 28.3716C38.5 26.5716 35.075 25.4216 31.25 25.2716L32.925 17.4466L38.35 18.6216C38.4 19.9966 39.55 21.0966 40.95 21.0966C42.375 21.0966 43.55 19.9216 43.55 18.4966C43.55 17.0716 42.375 15.8966 40.95 15.8966C39.925 15.8966 39.025 16.4966 38.625 17.3716L32.55 16.0716C32.375 15.9966 32.2 16.0716 32.075 16.1716C31.925 16.2716 31.85 16.4216 31.825 16.5966L29.975 25.2966C26.1 25.4216 22.6 26.5716 20.05 28.3966C19.4 27.7716 18.5 27.3966 17.525 27.3966C15.5 27.3966 13.875 29.0216 13.875 30.9966C13.875 32.5216 14.775 33.7716 16.025 34.3466C15.975 34.7466 15.95 35.0466 15.95 35.4466C15.95 40.9966 22.475 45.6216 30.5 45.6216C38.575 45.6216 45.125 41.0716 45.125 35.4466C45.125 35.0966 45.1 34.7466 45.025 34.3466C46.275 33.7716 47.175 32.4966 47.175 30.9966Z" fill="white"/>
</svg>
