<svg width="61" height="61" viewBox="0 0 61 61" fill="none" xmlns="http://www.w3.org/2000/svg">
<path d="M56.65 16.0527C54.725 16.9277 52.65 17.5027 50.5 17.7777C52.7 16.4527 54.4 14.3527 55.2 11.8277C53.125 13.0777 50.825 13.9527 48.4 14.4527C46.425 12.3027 43.65 11.0527 40.5 11.0527C34.625 11.0527 29.825 15.8527 29.825 21.7777C29.825 22.6277 29.925 23.4527 30.1 24.2277C21.2 23.7777 13.275 19.5027 8.00001 13.0277C7.07501 14.6027 6.55001 16.4527 6.55001 18.4027C6.55001 22.1277 8.42501 25.4277 11.325 27.3027C9.55001 27.3027 7.90001 26.8027 6.45001 26.0527V26.1277C6.45001 31.3277 10.15 35.6777 15.05 36.6527C13.4768 37.0833 11.8252 37.1432 10.225 36.8277C10.904 38.9589 12.2338 40.8238 14.0275 42.1601C15.8212 43.4964 17.9886 44.237 20.225 44.2777C16.4341 47.2788 11.735 48.901 6.90001 48.8777C6.05001 48.8777 5.20001 48.8277 4.35001 48.7277C9.10001 51.7777 14.75 53.5527 20.8 53.5527C40.5 53.5527 51.325 37.2027 51.325 23.0277C51.325 22.5527 51.325 22.1027 51.3 21.6277C53.4 20.1277 55.2 18.2277 56.65 16.0527Z" fill="white"/>
</svg>
