<svg width="20" height="21" viewBox="0 0 20 21" fill="none" xmlns="http://www.w3.org/2000/svg">
<path d="M18.7167 5.70841C18.075 6.00008 17.3833 6.19175 16.6667 6.28341C17.4 5.84175 17.9667 5.14175 18.2333 4.30008C17.5417 4.71675 16.775 5.00841 15.9667 5.17508C15.3083 4.45841 14.3833 4.04175 13.3333 4.04175C11.375 4.04175 9.77499 5.64175 9.77499 7.61675C9.77499 7.90008 9.80833 8.17508 9.86666 8.43342C6.89999 8.28342 4.25833 6.85841 2.49999 4.70008C2.19166 5.22508 2.01666 5.84175 2.01666 6.49175C2.01666 7.73341 2.64166 8.83342 3.60833 9.45842C3.01666 9.45842 2.46666 9.29175 1.98333 9.04175V9.06675C1.98333 10.8001 3.21666 12.2501 4.84999 12.5751C4.3256 12.7186 3.77507 12.7386 3.24166 12.6334C3.468 13.3438 3.91127 13.9654 4.50917 14.4109C5.10707 14.8563 5.82953 15.1032 6.57499 15.1167C5.31135 16.1171 3.74499 16.6578 2.13333 16.6501C1.84999 16.6501 1.56666 16.6334 1.28333 16.6001C2.86666 17.6167 4.74999 18.2084 6.76666 18.2084C13.3333 18.2084 16.9417 12.7584 16.9417 8.03341C16.9417 7.87508 16.9417 7.72508 16.9333 7.56675C17.6333 7.06675 18.2333 6.43341 18.7167 5.70841Z" fill="white"/>
</svg>
